<svg width="40" height="40" viewBox="0 0 40 40" fill="none" xmlns="http://www.w3.org/2000/svg">
<g id="left_ic_duoshixiangduibi">
<path id="Union" fill-rule="evenodd" clip-rule="evenodd" d="M32.75 24.7812V21.0625C32.75 20.7807 32.8619 20.5105 33.0612 20.3112C33.2605 20.1119 33.5307 20 33.8125 20C34.0943 20 34.3645 20.1119 34.5638 20.3112C34.7631 20.5105 34.875 20.7807 34.875 21.0625V25.3125C34.875 25.8761 34.6511 26.4166 34.2526 26.8151C33.8541 27.2136 33.3136 27.4375 32.75 27.4375H22.125V32.75C22.125 33.3136 21.9011 33.8541 21.5026 34.2526C21.1041 34.6511 20.5636 34.875 20 34.875H7.25C6.68641 34.875 6.14591 34.6511 5.7474 34.2526C5.34888 33.8541 5.125 33.3136 5.125 32.75V20C5.125 19.4364 5.34888 18.8959 5.7474 18.4974C6.14591 18.0989 6.68641 17.875 7.25 17.875H12.5625V7.25C12.5625 6.68641 12.7864 6.14591 13.1849 5.7474C13.5834 5.34888 14.1239 5.125 14.6875 5.125H23.1875C23.4693 5.125 23.7395 5.23694 23.9388 5.4362C24.1381 5.63546 24.25 5.90571 24.25 6.1875C24.25 6.46929 24.1381 6.73954 23.9388 6.9388C23.7395 7.13806 23.4693 7.25 23.1875 7.25H15.2188C15.1469 7.24146 15.0741 7.24932 15.0058 7.273C14.9374 7.29668 14.8753 7.33555 14.8242 7.38669C14.773 7.43784 14.7342 7.49992 14.7105 7.56826C14.6868 7.6366 14.679 7.70943 14.6875 7.78125V17.875H20C20.5636 17.875 21.1041 18.0989 21.5026 18.4974C21.9011 18.8959 22.125 19.4364 22.125 20V25.3125H32.2188C32.2906 25.321 32.3634 25.3132 32.4317 25.2895C32.5001 25.2658 32.5622 25.2269 32.6133 25.1758C32.6644 25.1247 32.7033 25.0626 32.727 24.9942C32.7507 24.9259 32.7585 24.8531 32.75 24.7812ZM19.1339 25.6894L19.835 26.5724L20.931 27.954C21.1272 28.2916 20.8813 28.7123 20.489 28.7123H6.78954C6.18266 28.7123 5.80335 28.0604 6.1068 27.5385L10.9828 21.3915C11.2836 20.8695 12.0423 20.8695 12.3457 21.3915L12.6962 21.833L13.4182 22.7445L15.6496 25.557L16.9 23.9832C17.0962 23.6482 17.5853 23.6482 17.7815 23.9832L19.1339 25.6894ZM17.0595 29.5121C17.3054 29.5121 17.5068 29.7095 17.5068 29.9562C17.5068 30.2029 17.3054 30.4003 17.0569 30.4003H7.29703C7.17839 30.4003 7.06461 30.3535 6.98073 30.2702C6.89684 30.1869 6.84971 30.074 6.84971 29.9562C6.84971 29.8384 6.89684 29.7255 6.98073 29.6422C7.06461 29.5589 7.17839 29.5121 7.29703 29.5121H17.0595ZM8.4611 31.1118H18.8488C18.9674 31.1118 19.0812 31.1586 19.1651 31.2419C19.249 31.3252 19.2961 31.4381 19.2961 31.5559C19.2961 31.6737 19.249 31.7867 19.1651 31.8699C19.0812 31.9532 18.9674 32 18.8488 32H8.4611C8.34246 32 8.22869 31.9532 8.1448 31.8699C8.06091 31.7867 8.01378 31.6737 8.01378 31.5559C8.01378 31.4381 8.06091 31.3252 8.1448 31.2419C8.22869 31.1586 8.34246 31.1118 8.4611 31.1118ZM18.4904 29.5121H19.7434C19.8621 29.5121 19.9758 29.5589 20.0597 29.6422C20.1436 29.7255 20.1907 29.8384 20.1907 29.9562C20.1907 30.074 20.1436 30.1869 20.0597 30.2702C19.9758 30.3535 19.8621 30.4003 19.7434 30.4003H18.4904C18.3718 30.4003 18.258 30.3535 18.1741 30.2702C18.0902 30.1869 18.0431 30.074 18.0431 29.9562C18.0431 29.8384 18.0902 29.7255 18.1741 29.6422C18.258 29.5589 18.3718 29.5121 18.4904 29.5121ZM34.1339 11.6894L34.835 12.5724L35.931 13.954C36.1272 14.2916 35.8813 14.7123 35.489 14.7123H21.7895C21.1827 14.7123 20.8034 14.0604 21.1068 13.5385L25.9828 7.39149C26.2836 6.8695 27.0423 6.8695 27.3457 7.39149L27.6962 7.83297L28.4182 8.7445L30.6496 11.557L31.9 9.98324C32.0962 9.64823 32.5853 9.64823 32.7815 9.98324L34.1339 11.6894ZM32.0595 15.5121C32.3054 15.5121 32.5068 15.7095 32.5068 15.9562C32.5068 16.2029 32.3054 16.4003 32.0569 16.4003H22.297C22.1784 16.4003 22.0646 16.3535 21.9807 16.2702C21.8968 16.1869 21.8497 16.074 21.8497 15.9562C21.8497 15.8384 21.8968 15.7255 21.9807 15.6422C22.0646 15.5589 22.1784 15.5121 22.297 15.5121H32.0595ZM23.4611 17.1118H33.8488C33.9674 17.1118 34.0812 17.1586 34.1651 17.2419C34.249 17.3252 34.2961 17.4381 34.2961 17.5559C34.2961 17.6737 34.249 17.7867 34.1651 17.8699C34.0812 17.9532 33.9674 18 33.8488 18H23.4611C23.3425 18 23.2287 17.9532 23.1448 17.8699C23.0609 17.7867 23.0138 17.6737 23.0138 17.5559C23.0138 17.4381 23.0609 17.3252 23.1448 17.2419C23.2287 17.1586 23.3425 17.1118 23.4611 17.1118ZM33.4904 15.5121H34.7434C34.8621 15.5121 34.9758 15.5589 35.0597 15.6422C35.1436 15.7255 35.1907 15.8384 35.1907 15.9562C35.1907 16.074 35.1436 16.1869 35.0597 16.2702C34.9758 16.3535 34.8621 16.4003 34.7434 16.4003H33.4904C33.3718 16.4003 33.258 16.3535 33.1741 16.2702C33.0902 16.1869 33.0431 16.074 33.0431 15.9562C33.0431 15.8384 33.0902 15.7255 33.1741 15.6422C33.258 15.5589 33.3718 15.5121 33.4904 15.5121Z" fill="url(#paint0_linear_581_29078)"/>
</g>
<defs>
<linearGradient id="paint0_linear_581_29078" x1="6.42453" y1="6.06991" x2="34.5207" y2="29.487" gradientUnits="userSpaceOnUse">
  <stop stop-color="#EEF5F9"/>
  <stop offset="1" stop-color="#B7C3CA"/>
</linearGradient>
</defs>
</svg>
