<svg width="40" height="40" viewBox="0 0 40 40" fill="none" xmlns="http://www.w3.org/2000/svg">
<g id="left_ic_guijichaxun">
<g id="Frame">
<path id="&#232;&#189;&#168;&#232;&#191;&#185;" d="M28.3654 24.6425C29.3395 24.6591 30.2681 25.0577 30.9511 25.7525C31.6341 26.4472 32.0168 27.3825 32.0168 28.3567C32.0168 29.331 31.6341 30.2662 30.9511 30.961C30.2681 31.6557 29.3395 32.0544 28.3654 32.071H21.615C21.4105 32.4252 21.0949 32.7021 20.717 32.8586C20.3391 33.0151 19.9202 33.0425 19.5251 32.9367C19.13 32.8308 18.7809 32.5976 18.532 32.2731C18.283 31.9486 18.148 31.551 18.148 31.142C18.148 30.733 18.283 30.3355 18.532 30.011C18.7809 29.6865 19.13 29.4533 19.5251 29.3474C19.9202 29.2415 20.3391 29.269 20.717 29.4255C21.0949 29.582 21.4105 29.8589 21.615 30.2131H28.3654C28.8469 30.1966 29.3032 29.9938 29.638 29.6473C29.9728 29.3009 30.1599 28.838 30.1599 28.3562C30.1599 27.8744 29.9728 27.4115 29.638 27.065C29.3032 26.7186 28.8469 26.5158 28.3654 26.4993H23.1155C23.6933 25.8991 24.2476 25.2798 24.7784 24.6414H28.3632L28.3654 24.6425ZM20.0073 7C21.898 6.99997 23.7176 7.72086 25.0952 9.01577C26.4728 10.3107 27.3049 12.0822 27.4218 13.9692L27.4316 14.1989V14.4297V14.6951C27.3261 18.026 25.2529 21.7257 21.212 25.7941L20.6519 26.3477C20.493 26.5006 20.2849 26.5921 20.0647 26.6056C19.8446 26.6191 19.6268 26.5537 19.4505 26.4213L19.3638 26.3477L19.0962 26.0876C14.9693 22.0085 12.8026 18.2976 12.5961 14.9551L12.582 14.6767V14.4297C12.582 12.4595 13.3646 10.57 14.7578 9.17686C16.1509 7.78373 18.0404 7.00108 20.0106 7.00108L20.0073 7ZM11.6503 19.0708H11.7153C11.9811 19.7079 12.2854 20.3284 12.6264 20.9287H11.6514C11.1589 20.9287 10.6866 21.1243 10.3384 21.4726C9.99015 21.8208 9.79452 22.2931 9.79452 22.7856C9.79452 23.2781 9.99015 23.7504 10.3384 24.0986C10.6866 24.4468 11.1589 24.6425 11.6514 24.6425H15.2362C15.7461 25.2549 16.2997 25.8742 16.897 26.5004H11.6514C10.6773 26.4838 9.7487 26.0851 9.06571 25.3904C8.38273 24.6956 8 23.7604 8 22.7861C8 21.8119 8.38273 20.8766 9.06571 20.1819C9.7487 19.4871 10.6773 19.0885 11.6514 19.0718L11.6503 19.0708ZM20.0084 11.6422C19.4547 11.6295 18.9098 11.7821 18.4432 12.0805C17.9766 12.3789 17.6096 12.8095 17.3889 13.3175C17.1682 13.8254 17.1039 14.3876 17.2041 14.9323C17.3044 15.477 17.5647 15.9794 17.9519 16.3755C18.339 16.7716 18.8354 17.0433 19.3776 17.156C19.9199 17.2686 20.4834 17.2172 20.9962 17.0081C21.5091 16.799 21.948 16.4419 22.257 15.9823C22.566 15.5226 22.7309 14.9813 22.7309 14.4275C22.7308 13.6994 22.4457 13.0003 21.9367 12.4798C21.4277 11.9592 20.7352 11.6586 20.0073 11.6422H20.0084Z" fill="url(#paint0_linear_993_29650)"/>
</g>
</g>
<defs>
<linearGradient id="paint0_linear_993_29650" x1="9.01087" y1="7.82581" x2="32.9009" y2="25.5482" gradientUnits="userSpaceOnUse">
<stop stop-color="#EEF5F9"/>
<stop offset="1" stop-color="#B7C3CA"/>
</linearGradient>
</defs>
</svg>
