<svg width="40" height="40" viewBox="0 0 40 40" fill="none" xmlns="http://www.w3.org/2000/svg">
<g id="left_ic_fuzhuxuanzhi">
<path id="Vector" d="M15.0689 25.1429C16.2946 26.4697 17.7346 27.842 19.3906 29.2589C19.6049 29.4423 19.9203 29.4423 20.1337 29.2589C21.7914 27.8429 23.2314 26.4697 24.4571 25.1429H25.1429L32 32H8L14.2854 25.1429H15.0689ZM12.0003 15.446C12.0003 11.7586 15.056 8 19.7626 8C24.4691 8 27.5249 11.7586 27.5249 15.446C27.5249 18.6449 25.0614 22.3606 20.1346 26.594C20.0309 26.683 19.8988 26.7319 19.7621 26.7319C19.6255 26.7319 19.4934 26.683 19.3897 26.594C14.4637 22.3606 12.0003 18.6449 12.0003 15.446ZM17.3334 14.4646C17.3302 14.7891 17.3918 15.111 17.5145 15.4114C17.6372 15.7118 17.8186 15.9848 18.0481 16.2142C18.2775 16.4437 18.5505 16.6251 18.8509 16.7478C19.1513 16.8705 19.4732 16.9321 19.7977 16.9289C20.1222 16.9321 20.4441 16.8705 20.7445 16.7478C21.045 16.6251 21.3179 16.4437 21.5474 16.2142C21.7768 15.9848 21.9582 15.7118 22.081 15.4114C22.2037 15.111 22.2652 14.7891 22.262 14.4646C22.2652 14.1401 22.2037 13.8182 22.081 13.5177C21.9582 13.2173 21.7768 12.9444 21.5474 12.7149C21.3179 12.4854 21.045 12.304 20.7445 12.1813C20.4441 12.0586 20.1222 11.9971 19.7977 12.0003C19.4732 11.9971 19.1513 12.0586 18.8509 12.1813C18.5505 12.304 18.2775 12.4854 18.0481 12.7149C17.8186 12.9444 17.6372 13.2173 17.5145 13.5177C17.3918 13.8182 17.3302 14.1401 17.3334 14.4646Z" fill="url(#paint0_linear_510_28612)"/>
</g>
<defs>
<linearGradient id="paint0_linear_510_28612" x1="9.01016" y1="8.76228" x2="31.51" y2="26.8317" gradientUnits="userSpaceOnUse">
<stop stop-color="#EEF5F9"/>
<stop offset="1" stop-color="#B7C3CA"/>
</linearGradient>
</defs>
</svg>
