<svg width="40" height="40" viewBox="0 0 40 40" fill="none" xmlns="http://www.w3.org/2000/svg">
<g id="left_ic_huancongqufenxi">
<path id="Vector" d="M33.9056 19.3732C33.745 18.5239 33.375 17.6112 32.8045 16.655C32.8554 15.8843 32.7698 15.1109 32.5514 14.3684C32.086 12.774 31.0745 11.3803 29.5469 10.2233L29.5167 10.2015L29.4486 10.1589C28.2811 9.39963 26.9072 8.99614 25.5027 9.00003C23.8408 9.00003 22.1127 9.5416 20.3593 10.6115C19.8239 10.2394 18.8737 9.79061 17.4084 9.79061C16.0162 9.79061 14.439 10.2053 12.7197 11.0196C12.0577 11.1976 7.91707 12.4341 6.48203 15.7848C5.60095 17.8422 5.92904 20.2206 7.4556 22.8603C7.20345 23.6017 6.64754 25.3514 7.36311 26.6494C7.92584 27.6701 10.0395 31 13.5872 31C13.8598 31 14.1382 30.9801 14.4127 30.9404L14.4527 30.9328L14.7184 30.8816C16.2723 30.5853 16.6938 30.4234 21.183 26.8085C21.2453 26.8378 21.3125 26.8719 21.3806 26.907C21.9462 27.1919 22.7202 27.583 23.8661 27.583C24.0034 27.583 24.1436 27.5773 24.2848 27.5659L24.3325 27.5612L24.4785 27.5328C27.2074 26.9912 30.1525 26.2717 31.311 25.0493C31.4327 24.9206 31.5866 24.7748 31.7501 24.6195C32.4404 23.9652 33.3857 23.0696 33.7975 21.7365C34.0244 20.9989 34.0614 20.2036 33.9046 19.3742H33.9056V19.3732ZM32.4267 19.982H26.6457C26.3437 19.7509 26.0498 19.51 25.7646 19.2596C25.7169 19.2084 25.6885 19.143 25.6838 19.074H32.2311C32.3333 19.3978 32.3956 19.6999 32.4267 19.982ZM32.0217 18.5088H25.7957C25.9058 18.2162 26.08 17.8877 26.2494 17.6008H31.5681C31.7491 17.9208 31.9 18.2229 32.0217 18.5088ZM31.239 16.6985C31.2237 16.8111 31.2306 16.9255 31.2594 17.0356H26.5298C26.6106 16.6663 26.5386 16.369 26.4052 16.1276H31.2633C31.2663 16.3529 31.2555 16.5461 31.239 16.6985ZM31.2205 15.5614H25.9233C25.824 15.4724 25.7373 15.3995 25.6867 15.3398C25.3557 14.9516 24.0832 14.8835 24.0832 14.8835L23.2411 15.5614H18.0257L18.052 14.91C18.052 14.91 17.6158 14.7405 17.5496 14.6534H31.017C31.1212 14.9772 31.1845 15.283 31.2205 15.5614ZM20.2172 18.5088H17.9079L17.9439 17.6008H20.7088L19.9728 18.1945L20.2172 18.5088ZM20.6543 19.074L21.3582 19.982H17.8495L17.8855 19.074H20.6543ZM21.7934 20.5473L22.4973 21.4553H17.7901L17.8261 20.5473H21.7934ZM21.4118 17.0346H17.9663L18.0023 16.1266H22.5392L21.4118 17.0346ZM25.5027 10.514C26.4078 10.5117 27.2994 10.727 28.0982 11.1408H22.6424C23.6276 10.7242 24.5846 10.514 25.5037 10.514H25.5027ZM15.0904 11.706H19.23C19.5133 11.8584 19.6574 12.0033 19.6885 12.0364L20.112 12.5969L20.7332 12.1832C20.9931 12.0109 21.2501 11.8518 21.5062 11.7051H28.9521C29.3074 12.0052 29.6122 12.3091 29.8682 12.613H12.6973C12.9943 12.5127 13.1792 12.4653 13.187 12.4634C13.187 12.4634 14.5335 11.8821 15.0904 11.706ZM11.3236 13.1792H30.2985C30.5069 13.4879 30.6724 13.7928 30.8048 14.0872H9.81749C10.2894 13.7397 10.7937 13.4357 11.3236 13.1792ZM9.14377 14.6534H17.2663C16.7688 14.7613 16.2353 15.1713 15.8079 15.5614H8.36394C8.59034 15.2329 8.85173 14.9286 9.14377 14.6534ZM15.2315 16.1266C15.1166 16.244 15.0349 16.3255 14.9988 16.3472C14.9005 16.405 14.1567 16.2668 13.4879 16.1266H15.2315ZM12.8901 22.0214L12.9534 22.9294H9.0581C9.10064 22.754 9.07571 22.5694 8.988 22.4106C8.97535 22.3888 8.81958 22.1275 8.75824 22.0205L12.8901 22.0214ZM8.88091 23.4937H12.9923L13.0439 24.2351C13.0439 24.2351 13.1159 24.3051 13.223 24.4017H8.64336C8.70859 24.0561 8.80497 23.7323 8.88091 23.4937ZM8.03098 16.1266H12.0927L11.458 16.6701V17.0356H7.6951C7.75157 16.8093 7.99107 16.2062 8.03098 16.1266ZM7.59385 17.5999H11.4589V18.5078H7.5734C7.55275 18.2052 7.55959 17.9014 7.59385 17.5999ZM11.6244 19.074C11.8065 19.3145 12.0995 19.7056 12.2874 19.982H7.85671C7.76416 19.6843 7.69196 19.381 7.64058 19.074H11.6244ZM8.0524 20.5473H12.5581C12.6525 20.8427 12.7684 21.2517 12.8258 21.4553H8.45741C8.30781 21.1589 8.17266 20.856 8.0524 20.5473ZM14.4196 29.3942L14.1645 29.4435C13.9736 29.4706 13.781 29.4842 13.5881 29.4842C13.2892 29.4842 13.002 29.451 12.7265 29.3885H14.4449L14.4196 29.3942ZM15.988 28.8233H11.3596C10.9445 28.5657 10.5624 28.2609 10.2215 27.9153H17.3004C16.7396 28.3376 16.3248 28.6216 15.988 28.8233ZM18.0393 27.3501H9.7065C9.46688 27.0605 9.24517 26.7573 9.04252 26.4421H19.192C18.7607 26.7858 18.3791 27.0869 18.0393 27.3501ZM27.4537 25.2756C26.6019 25.5275 25.7257 25.7263 25.012 25.8759H22.7952C22.546 25.785 22.3211 25.6714 22.0991 25.5606C21.8236 25.4214 21.5627 25.2898 21.2686 25.2056L20.8704 25.091L20.5511 25.3485L19.8979 25.8759H8.70859C8.58592 25.6193 8.55282 25.2993 8.57131 24.9679H13.9805C14.035 24.9897 14.0808 24.9991 14.1129 24.9878L14.1742 24.9679H28.3971C28.0863 25.0806 27.7716 25.1833 27.4537 25.2756ZM30.6656 23.5325C30.4864 23.703 30.318 23.863 30.1671 24.022C30.0795 24.1158 29.9237 24.2445 29.655 24.4036H15.177C15.2064 24.3737 15.2331 24.3414 15.2568 24.307C15.3766 24.1328 15.4739 23.8024 15.5392 23.4937H30.7064C30.6931 23.5069 30.6794 23.5199 30.6656 23.5325ZM31.2799 22.9294H15.6239L15.6258 22.8736C15.6258 22.6227 16.4368 22.6956 16.9538 22.5507C17.4707 22.4068 17.7579 22.26 17.7579 22.26L17.7677 22.0205H22.9344L23.4173 22.6454C23.6958 22.7003 24.9419 22.35 26.0752 22.0205H31.9867C31.7871 22.3576 31.5427 22.6549 31.2799 22.9294ZM32.2554 21.4553H27.8256C28.2891 21.1617 27.7994 20.8739 27.7994 20.8739L27.3729 20.5473H32.4404C32.4237 20.857 32.3614 21.1628 32.2554 21.4553Z" fill="url(#paint0_linear_510_28554)"/>
</g>
<defs>
<linearGradient id="paint0_linear_510_28554" x1="7.17852" y1="9.69876" x2="28.2962" y2="31.2835" gradientUnits="userSpaceOnUse">
<stop stop-color="#EEF5F9"/>
<stop offset="1" stop-color="#B7C3CA"/>
</linearGradient>
</defs>
</svg>
