<svg width="40" height="40" viewBox="0 0 40 40" fill="none" xmlns="http://www.w3.org/2000/svg">
<g id="left_ic_zhuantijiansuo">
<path id="Union" fill-rule="evenodd" clip-rule="evenodd" d="M8.0016 23.8025C8.02957 24.3228 8.42115 24.7477 8.92827 24.8236C8.98142 24.8316 9.03583 24.8357 9.09119 24.8357H18.2412C17.3391 24.1721 16.5501 23.3672 15.9046 22.452H15.7796C15.7796 22.452 15.7796 22.4519 15.7796 22.4519H9.09119C8.94811 22.4517 8.80638 22.4797 8.67411 22.5342C8.54183 22.5888 8.4216 22.6689 8.32028 22.7699C8.21895 22.8709 8.13851 22.9909 8.08356 23.123C8.02861 23.2551 8.00022 23.3968 8 23.5399V23.7428C8 23.7629 8.00054 23.7827 8.0016 23.8025ZM28.3492 24.5415C28.6049 24.6557 28.8055 24.8657 28.9079 25.1263L30.7704 29.9863C30.8186 30.1146 30.8405 30.2513 30.8349 30.3883C30.8292 30.5252 30.7961 30.6596 30.7375 30.7835C30.6789 30.9074 30.5959 31.0183 30.4937 31.1095C30.3914 31.2007 30.2718 31.2705 30.142 31.3146L29.8838 31.4104C29.3334 31.6117 28.7228 31.3389 28.5166 30.8031L26.6557 25.9398C26.6075 25.8115 26.5856 25.6748 26.5913 25.5379C26.5969 25.4009 26.6301 25.2665 26.6887 25.1426C26.7473 25.0187 26.8302 24.9079 26.9325 24.8167C27.0348 24.7254 27.1544 24.6557 27.2841 24.6116L27.5407 24.5158C27.8031 24.4181 28.0935 24.4273 28.3492 24.5415ZM19.6718 28.8042H24.4571C24.7465 28.8042 25.0241 28.9192 25.2287 29.1238C25.4333 29.3284 25.5483 29.606 25.5483 29.8954V30.1C25.5483 30.3894 25.4333 30.6669 25.2287 30.8716C25.0241 31.0762 24.7465 31.1912 24.4571 31.1912H19.6637V31.1895H9.09119C8.48876 31.1895 8 30.6992 8 30.0967V29.8954C7.99979 29.7521 8.02788 29.6102 8.08266 29.4778C8.13744 29.3454 8.21783 29.2251 8.31922 29.1239C8.42061 29.0227 8.541 28.9424 8.67348 28.8879C8.80596 28.8333 8.94791 28.8054 9.09119 28.8058H19.6718V28.8042ZM27.6921 9.26152C29.3239 10.0145 30.6559 11.2931 31.4751 12.8927C32.4442 14.791 32.6199 16.9963 31.9638 19.0241C31.3077 21.052 29.8733 22.7363 27.9759 23.7071C26.4959 24.4623 24.818 24.7398 23.1737 24.5014C21.5293 24.2629 19.9994 23.5202 18.795 22.3756C17.5128 21.1718 16.6674 19.5757 16.3918 17.8387C16.189 16.6042 16.2788 15.3393 16.6539 14.1458C17.029 12.9523 17.6789 11.8635 18.5514 10.9669C19.1641 10.3311 19.8772 9.80061 20.6623 9.39665C21.2518 9.09787 21.8591 8.88515 22.4745 8.73901C24.2232 8.32451 26.0603 8.50848 27.6921 9.26152ZM20.0145 20.8589C21.1562 22.0005 22.7046 22.6419 24.3191 22.6419C25.9336 22.6419 27.482 22.0005 28.6237 20.8589C29.7653 19.7172 30.4067 18.1688 30.4067 16.5543C30.4067 14.9398 29.7653 13.3914 28.6237 12.2497C27.482 11.1081 25.9336 10.4667 24.3191 10.4667C22.7046 10.4667 21.1562 11.1081 20.0145 12.2497C18.8729 13.3914 18.2315 14.9398 18.2315 16.5543C18.2315 18.1688 18.8729 19.7172 20.0145 20.8589ZM9.16913 15.9129H14.0714C14.0684 15.9568 14.0652 16.0006 14.062 16.0442C14.0496 16.2139 14.0373 16.3826 14.0373 16.5543C14.0392 17.1974 14.1012 17.8389 14.2224 18.4704H9.16913C8.52449 18.4704 8 17.9475 8 17.3013V17.082C8 16.772 8.12318 16.4746 8.34243 16.2553C8.56169 16.0361 8.85906 15.9129 9.16913 15.9129ZM9.09119 9.16288H17.1825C16.4566 9.8633 15.8373 10.6664 15.3444 11.5466H9.09119C8.48876 11.5466 8 11.0562 8 10.4538V10.2508C8 10.1077 8.02825 9.96593 8.08313 9.83373C8.138 9.70152 8.21843 9.58144 8.3198 9.48038C8.42117 9.37931 8.54148 9.29924 8.67385 9.24476C8.80622 9.19027 8.94805 9.16245 9.09119 9.16288Z" fill="url(#paint0_linear_135_96)"/>
</g>
<defs>
<linearGradient id="paint0_linear_135_96" x1="9.02507" y1="9.25153" x2="30.7846" y2="27.7923" gradientUnits="userSpaceOnUse">
<stop stop-color="#EEF5F9"/>
<stop offset="1" stop-color="#B7C3CA"/>
</linearGradient>
</defs>
</svg>
