<svg width="40" height="40" viewBox="0 0 40 40" fill="none" xmlns="http://www.w3.org/2000/svg">
<g id="left_ic_rizhaofenxi">
<g id="Frame" clip-path="url(#clip0_492_29711)">
<path id="Vector" d="M20 6C20.4243 6 20.8313 6.16857 21.1314 6.46863C21.4314 6.76869 21.6 7.17565 21.6 7.6V9.6C21.6 10.0243 21.4314 10.4313 21.1314 10.7314C20.8313 11.0314 20.4243 11.2 20 11.2C19.5757 11.2 19.1687 11.0314 18.8686 10.7314C18.5686 10.4313 18.4 10.0243 18.4 9.6V7.6C18.4 7.17565 18.5686 6.76869 18.8686 6.46863C19.1687 6.16857 19.5757 6 20 6V6ZM20 28.8C20.4243 28.8 20.8313 28.9686 21.1314 29.2686C21.4314 29.5687 21.6 29.9757 21.6 30.4V32.4C21.6 32.8243 21.4314 33.2313 21.1314 33.5314C20.8313 33.8314 20.4243 34 20 34C19.5757 34 19.1687 33.8314 18.8686 33.5314C18.5686 33.2313 18.4 32.8243 18.4 32.4V30.4C18.4 29.9757 18.5686 29.5687 18.8686 29.2686C19.1687 28.9686 19.5757 28.8 20 28.8ZM34 20C34 20.4243 33.8314 20.8313 33.5314 21.1314C33.2313 21.4314 32.8243 21.6 32.4 21.6H30.4C29.9757 21.6 29.5687 21.4314 29.2686 21.1314C28.9686 20.8313 28.8 20.4243 28.8 20C28.8 19.5757 28.9686 19.1687 29.2686 18.8686C29.5687 18.5686 29.9757 18.4 30.4 18.4H32.4C32.8243 18.4 33.2313 18.5686 33.5314 18.8686C33.8314 19.1687 34 19.5757 34 20ZM11.2 20C11.2 20.4243 11.0314 20.8313 10.7314 21.1314C10.4313 21.4314 10.0243 21.6 9.6 21.6H7.6C7.17565 21.6 6.76869 21.4314 6.46863 21.1314C6.16857 20.8313 6 20.4243 6 20C6 19.5757 6.16857 19.1687 6.46863 18.8686C6.76869 18.5686 7.17565 18.4 7.6 18.4H9.6C10.0243 18.4 10.4313 18.5686 10.7314 18.8686C11.0314 19.1687 11.2 19.5757 11.2 20ZM29.8996 10.1004C30.0482 10.249 30.166 10.4254 30.2465 10.6195C30.3269 10.8136 30.3683 11.0217 30.3683 11.2318C30.3683 11.4419 30.3269 11.65 30.2465 11.8441C30.166 12.0382 30.0482 12.2146 29.8996 12.3632L28.4852 13.7776C28.1851 14.0777 27.7782 14.2462 27.3538 14.2462C26.9294 14.2462 26.5225 14.0777 26.2224 13.7776C25.9223 13.4775 25.7538 13.0706 25.7538 12.6462C25.7538 12.2218 25.9223 11.8149 26.2224 11.5148L27.6368 10.1004C27.7854 9.95182 27.9618 9.83395 28.1559 9.75354C28.35 9.67313 28.5581 9.63174 28.7682 9.63174C28.9783 9.63174 29.1864 9.67313 29.3805 9.75354C29.5746 9.83395 29.751 9.95182 29.8996 10.1004ZM13.7776 26.2224C13.9262 26.371 14.044 26.5474 14.1245 26.7415C14.2049 26.9356 14.2463 27.1437 14.2463 27.3538C14.2463 27.5639 14.2049 27.772 14.1245 27.9661C14.044 28.1602 13.9262 28.3366 13.7776 28.4852L12.3632 29.8996C12.0631 30.1997 11.6562 30.3682 11.2318 30.3682C10.8074 30.3682 10.4005 30.1997 10.1004 29.8996C9.80033 29.5995 9.63176 29.1926 9.63176 28.7682C9.63176 28.3438 9.80033 27.9369 10.1004 27.6368L11.5148 26.2224C11.6634 26.0738 11.8398 25.956 12.0339 25.8755C12.228 25.7951 12.4361 25.7537 12.6462 25.7537C12.8563 25.7537 13.0644 25.7951 13.2585 25.8755C13.4526 25.956 13.629 26.0738 13.7776 26.2224ZM29.8996 29.8996C29.751 30.0482 29.5746 30.166 29.3805 30.2465C29.1864 30.3269 28.9783 30.3683 28.7682 30.3683C28.5581 30.3683 28.35 30.3269 28.1559 30.2465C27.9618 30.166 27.7854 30.0482 27.6368 29.8996L26.2224 28.4852C25.9223 28.1851 25.7538 27.7782 25.7538 27.3538C25.7538 26.9294 25.9223 26.5225 26.2224 26.2224C26.5225 25.9223 26.9294 25.7538 27.3538 25.7538C27.7782 25.7538 28.1851 25.9223 28.4852 26.2224L29.8996 27.6368C30.0482 27.7854 30.166 27.9618 30.2465 28.1559C30.3269 28.35 30.3683 28.5581 30.3683 28.7682C30.3683 28.9783 30.3269 29.1864 30.2465 29.3805C30.166 29.5746 30.0482 29.751 29.8996 29.8996ZM13.7776 13.7776C13.629 13.9262 13.4526 14.044 13.2585 14.1245C13.0644 14.2049 12.8563 14.2463 12.6462 14.2463C12.4361 14.2463 12.228 14.2049 12.0339 14.1245C11.8398 14.044 11.6634 13.9262 11.5148 13.7776L10.1004 12.3632C9.95182 12.2146 9.83396 12.0382 9.75355 11.8441C9.67315 11.65 9.63176 11.4419 9.63176 11.2318C9.63176 11.0217 9.67315 10.8136 9.75355 10.6195C9.83396 10.4254 9.95182 10.249 10.1004 10.1004C10.249 9.95182 10.4254 9.83396 10.6195 9.75355C10.8136 9.67315 11.0217 9.63176 11.2318 9.63176C11.4419 9.63176 11.65 9.67315 11.8441 9.75355C12.0382 9.83396 12.2146 9.95182 12.3632 10.1004L13.7776 11.5148C13.9262 11.6634 14.044 11.8398 14.1245 12.0339C14.2049 12.228 14.2463 12.4361 14.2463 12.6462C14.2463 12.8563 14.2049 13.0644 14.1245 13.2585C14.044 13.4526 13.9262 13.629 13.7776 13.7776ZM20 26C16.6864 26 14 23.3136 14 20C14 16.6864 16.6864 14 20 14C23.3136 14 26 16.6864 26 20C26 23.3136 23.3136 26 20 26Z" fill="url(#paint0_linear_492_29711)"/>
</g>
</g>
<defs>
<linearGradient id="paint0_linear_492_29711" x1="7.17852" y1="6.88933" x2="33.4283" y2="27.9703" gradientUnits="userSpaceOnUse">
<stop stop-color="#EEF5F9"/>
<stop offset="1" stop-color="#B7C3CA"/>
</linearGradient>
<clipPath id="clip0_492_29711">
<rect width="28" height="28" fill="white" transform="translate(6 6)"/>
</clipPath>
</defs>
</svg>
