<svg width="40" height="40" viewBox="0 0 40 40" fill="none" xmlns="http://www.w3.org/2000/svg">
<g id="left_ic_tuixianfenxi">
<path id="Subtract" fill-rule="evenodd" clip-rule="evenodd" d="M8.1001 8.8H17.9001V31.2H8.1001V8.8ZM30.5001 8.8H31.9001V11.6H30.5001V8.8ZM27.7001 8.8H29.1001V10.2H27.7001V8.8ZM24.9001 8.8H26.3001V10.2H24.9001V8.8ZM22.1001 8.8H23.5001V11.6H22.1001V8.8ZM22.1001 13H23.5001V14.4H22.1001V13ZM22.1001 15.8H23.5001V17.2H22.1001V15.8ZM22.1001 18.6H23.5001V20H22.1001V18.6ZM22.1001 21.4H23.5001V22.8H22.1001V21.4ZM22.1001 24.2H23.5001V25.6H22.1001V24.2ZM22.1001 27H23.5001V28.4H22.1001V27ZM22.1001 29.8H23.5001H24.9001V31.2H23.5001H22.1001V29.8ZM26.3001 29.8H27.7001V31.2H26.3001V29.8ZM29.1001 29.8H30.5001H31.9001V31.2H30.5001H29.1001V29.8ZM30.5001 27H31.9001V28.4H30.5001V27ZM30.5001 24.2H31.9001V25.6H30.5001V24.2ZM30.5001 21.4H31.9001V22.8H30.5001V21.4ZM30.5001 18.6H31.9001V20H30.5001V18.6ZM30.5001 15.8H31.9001V17.2H30.5001V15.8ZM30.5001 13H31.9001V14.4H30.5001V13ZM19.3001 6H20.7001V34H19.3001V6ZM17 11H9V14H17V11ZM17 17H9V20H17V17ZM9 23H17V26H9V23Z" fill="url(#paint0_linear_510_28617)"/>
</g>
<defs>
<linearGradient id="paint0_linear_510_28617" x1="9.10184" y1="6.88933" x2="34.1382" y2="23.9798" gradientUnits="userSpaceOnUse">
<stop stop-color="#EEF5F9"/>
<stop offset="1" stop-color="#B7C3CA"/>
</linearGradient>
</defs>
</svg>
