<svg width="40" height="40" viewBox="0 0 40 40" fill="none" xmlns="http://www.w3.org/2000/svg">
<g id="left_ic_zhuantitongji">
<path id="Union" fill-rule="evenodd" clip-rule="evenodd" d="M26.4961 9.495L31.0061 9L30.5111 13.521L29.2791 12.289L23.8891 18.878C23.7241 19.065 23.4931 19.186 23.2401 19.208C22.9981 19.219 22.7451 19.142 22.5581 18.966L17.3772 14.181L10.5352 20.363C10.3592 20.517 10.1392 20.594 9.9192 20.594C9.6662 20.594 9.4132 20.495 9.2372 20.297C8.8962 19.923 8.9292 19.34 9.3032 18.999L16.7722 12.256C17.1242 11.948 17.6632 11.948 18.0042 12.267L23.0861 16.964L27.9811 10.98L26.4961 9.495ZM9.6662 30.9999H11.8662C12.2292 30.9999 12.5262 30.7029 12.5262 30.3399V22.8599C12.5262 22.4969 12.2292 22.1999 11.8662 22.1999H9.6662C9.3032 22.1999 9.0062 22.4969 9.0062 22.8599V30.3399C9.0062 30.7029 9.3032 30.9999 9.6662 30.9999ZM15.826 31H18.0259C18.3889 31 18.6859 30.703 18.6859 30.34V18.46C18.6859 18.097 18.3889 17.8 18.0259 17.8H15.826C15.463 17.8 15.166 18.097 15.166 18.46V30.34C15.166 30.703 15.463 31 15.826 31ZM21.9859 31H24.1859C24.5489 31 24.8459 30.703 24.8459 30.34V21.76C24.8459 21.397 24.5489 21.1 24.1859 21.1H21.9859C21.6229 21.1 21.3259 21.397 21.3259 21.76V30.34C21.3259 30.703 21.6229 31 21.9859 31ZM28.1459 31H30.3459C30.7089 31 31.0059 30.703 31.0059 30.34V16.26C31.0059 15.897 30.7089 15.6 30.3459 15.6H28.1459C27.7829 15.6 27.4859 15.897 27.4859 16.26V30.34C27.4859 30.703 27.7829 31 28.1459 31Z" fill="url(#paint0_linear_135_107)"/>
</g>
<defs>
<linearGradient id="paint0_linear_135_107" x1="9.927" y1="9.69876" x2="30.5529" y2="26.2673" gradientUnits="userSpaceOnUse">
<stop stop-color="#EEF5F9"/>
<stop offset="1" stop-color="#B7C3CA"/>
</linearGradient>
</defs>
</svg>
