<svg width="40" height="40" viewBox="0 0 40 40" fill="none" xmlns="http://www.w3.org/2000/svg">
<g id="left_ic_haodianfenxi">
<path id="Vector" d="M9.84578 9H30.1542C30.6211 9 31 9.36802 31 9.82199V31.178C31 31.6319 30.6211 32 30.1542 32H9.84578C9.62383 32.0019 9.41015 31.9166 9.25161 31.7627C9.09306 31.6089 9.00258 31.399 9 31.1792V9.8232C9 9.36802 9.37889 9 9.84578 9ZM18.8902 19.6786L15.7687 24.343L20 25.4737L17.8086 30.1926L24.2313 23.8612L20 23.1893L22.4616 19.6798H18.8902V19.6786ZM29.3072 10.742L10.6928 10.7336V17.2151H29.3072V10.7432V10.742ZM14.2886 12.2867H15.9813V15.5723H14.2886V12.2867ZM19.3706 12.2867H21.0633V15.5723H19.3644L19.3706 12.2867ZM24.4526 12.2867H26.1441V15.5723H24.4416L24.4526 12.2867Z" fill="url(#paint0_linear_492_29716)"/>
</g>
<defs>
<linearGradient id="paint0_linear_492_29716" x1="9.92598" y1="9.73052" x2="31.2624" y2="26.1207" gradientUnits="userSpaceOnUse">
<stop stop-color="#EEF5F9"/>
<stop offset="1" stop-color="#B7C3CA"/>
</linearGradient>
</defs>
</svg>
