<svg width="40" height="40" viewBox="0 0 40 40" fill="none" xmlns="http://www.w3.org/2000/svg">
<g id="left_ic_renfangguanlian">
<g id="Frame" clip-path="url(#clip0_135_123)">
<g id="&#232;&#146;&#153;&#231;&#137;&#136;&#231;&#187;&#132; 74">
<g id="&#228;&#186;&#186;&#230;&#136;&#191;&#229;&#133;&#179;&#232;&#129;&#148;">
<path id="&#232;&#183;&#175;&#229;&#190;&#132; 52" d="M27.0115 26.7152C27.7505 26.7152 28.473 26.496 29.0875 26.0855C29.702 25.6749 30.181 25.0913 30.4638 24.4086C30.7467 23.7258 30.8208 22.9745 30.6767 22.2496C30.5326 21.5248 30.1768 20.8589 29.6543 20.3363C29.1318 19.8136 28.4661 19.4576 27.7412 19.3133C27.0164 19.169 26.2651 19.2428 25.5823 19.5255C24.8994 19.8081 24.3157 20.2869 23.9049 20.9013C23.4942 21.5156 23.2748 22.238 23.2746 22.9771C23.2752 23.9681 23.6691 24.9183 24.3697 25.6192C25.0704 26.32 26.0205 26.7142 27.0115 26.7152V26.7152ZM29.3113 27.2883C28.6653 27.8237 27.8504 28.1126 27.0115 28.1038C26.1608 28.099 25.3358 27.8122 24.6656 27.2883C23.6677 27.5467 22.7755 28.1107 22.1141 28.9014C21.4527 29.6921 21.0552 30.6698 20.9771 31.6977C20.9698 31.8567 20.9858 32.016 21.0244 32.1704H32.9513C32.9513 32.0286 32.9998 31.8348 32.9998 31.6977C32.9138 30.6718 32.5135 29.6975 31.8534 28.9075C31.1933 28.1175 30.3056 27.5504 29.3113 27.2836V27.2883Z" fill="url(#paint0_linear_135_123)"/>
<path id="&#232;&#183;&#175;&#229;&#190;&#132; 53" d="M10.2438 30.5383V10.3706C10.2203 10.1742 10.2691 9.97607 10.3812 9.81314C10.4932 9.65022 10.6607 9.53369 10.8525 9.48538C10.9401 9.46569 11.0298 9.45735 11.1196 9.46056C14.8596 9.46056 18.6001 9.46056 22.3409 9.46056C22.4605 9.44971 22.581 9.4654 22.6938 9.50651C22.8066 9.54762 22.909 9.61313 22.9935 9.69837C23.0781 9.78361 23.1428 9.88647 23.183 9.9996C23.2232 10.1127 23.2379 10.2333 23.2261 10.3528V18.9872H24.8476V10.3327C24.8585 10.0029 24.8019 9.67441 24.6813 9.36727C24.5606 9.06013 24.3786 8.78086 24.1462 8.5466C23.9138 8.31233 23.636 8.12801 23.3299 8.00493C23.0237 7.88185 22.6956 7.8226 22.3658 7.83083C18.6123 7.83083 14.86 7.83083 11.1089 7.83083C10.9059 7.82898 10.7032 7.8504 10.505 7.89465C9.96165 8.01844 9.47772 8.32613 9.1351 8.76566C8.79247 9.20519 8.61219 9.74959 8.62475 10.3067V30.5466C8.35648 30.5466 8.11657 30.5466 7.87548 30.5466C7.77995 30.5461 7.6847 30.5572 7.59184 30.5796C7.39773 30.6314 7.23027 30.7544 7.12292 30.9242C7.01557 31.094 6.97622 31.298 7.01275 31.4956C7.04683 31.6942 7.15349 31.8731 7.31203 31.9976C7.47056 32.1221 7.66968 32.1832 7.87075 32.1692H20.3366V30.5383H10.2438ZM27.275 17.5643C27.7891 17.5714 28.3068 17.5643 28.8232 17.5643C28.9442 17.5523 29.0664 17.5675 29.1808 17.6087C29.2952 17.6499 29.3989 17.7162 29.4845 17.8025C29.5701 17.8889 29.6354 17.9933 29.6755 18.1081C29.7157 18.2228 29.7297 18.3451 29.7167 18.466V18.9801H31.3381V18.4093C31.3432 18.0844 31.283 17.7619 31.161 17.4608C31.0391 17.1596 30.8578 16.8861 30.6281 16.6564C30.3984 16.4266 30.1248 16.2454 29.8237 16.1235C29.5226 16.0015 29.2 15.9413 28.8752 15.9464H27.3294C27.2465 15.9448 27.1636 15.9523 27.0824 15.9688C26.8939 16.0198 26.7301 16.137 26.621 16.2989C26.5119 16.4609 26.4648 16.6567 26.4884 16.8505C26.5119 17.0443 26.6045 17.2232 26.7492 17.3543C26.8939 17.4854 27.081 17.5599 27.2762 17.5643H27.275Z" fill="url(#paint1_linear_135_123)"/>
<path id="&#232;&#183;&#175;&#229;&#190;&#132; 54" d="M19.9312 19.558C19.813 19.0522 19.5129 18.7166 19.15 18.7154C18.3996 18.7154 17.648 18.7154 16.8975 18.7154C16.0395 18.7154 15.1815 18.7154 14.3247 18.7154C13.7822 18.7154 13.41 19.4327 13.508 20.2517C13.5825 20.8651 13.9087 21.2669 14.353 21.2728C15.1484 21.2728 15.9461 21.2728 16.7403 21.2728C17.5345 21.2728 18.298 21.2728 19.078 21.2728C19.197 21.2794 19.3158 21.2554 19.423 21.203C19.5301 21.1507 19.6221 21.0718 19.6901 20.9738C19.8246 20.7662 19.9154 20.5334 19.9571 20.2896C19.9987 20.0458 19.9903 19.7961 19.9324 19.5556L19.9312 19.558ZM19.9312 13.2483C19.813 12.7401 19.5129 12.4056 19.15 12.4021C18.3996 12.4021 17.648 12.4021 16.8975 12.4021C16.0395 12.4021 15.1815 12.4021 14.3247 12.4021C13.7822 12.4021 13.41 13.1183 13.508 13.9385C13.5825 14.5518 13.9087 14.956 14.353 14.9596C15.1484 14.9666 15.945 14.9596 16.7403 14.9596C17.5357 14.9596 18.298 14.9596 19.078 14.9596C19.1968 14.9653 19.3151 14.941 19.4221 14.8889C19.5291 14.8369 19.6213 14.7587 19.6901 14.6617C19.8248 14.4542 19.9158 14.2215 19.9575 13.9776C19.9991 13.7338 19.9906 13.484 19.9324 13.2436L19.9312 13.2483ZM19.1489 25.0275C18.3984 25.0204 17.6468 25.0275 16.8963 25.0275C16.0383 25.0275 15.1803 25.0204 14.3235 25.0275C13.781 25.0275 13.4088 25.7366 13.508 26.5638C13.5825 27.1772 13.9087 27.5814 14.353 27.5849C15.1484 27.592 15.945 27.5849 16.7403 27.5849C17.5357 27.5849 18.298 27.5849 19.0756 27.5849C19.1943 27.5914 19.3128 27.5673 19.4195 27.515C19.5263 27.4626 19.6178 27.3838 19.6854 27.2859C19.8202 27.0785 19.9112 26.8457 19.9528 26.6018C19.9945 26.358 19.9859 26.1082 19.9277 25.8677C19.8095 25.3584 19.5105 25.0251 19.1477 25.0216L19.1489 25.0275Z" fill="url(#paint2_linear_135_123)"/>
</g>
</g>
</g>
</g>
<defs>
<linearGradient id="paint0_linear_135_123" x1="21.4815" y1="19.652" x2="33.3846" y2="28.5423" gradientUnits="userSpaceOnUse">
<stop stop-color="#EEF5F9"/>
<stop offset="1" stop-color="#B7C3CA"/>
</linearGradient>
<linearGradient id="paint1_linear_135_123" x1="8.02388" y1="8.60319" x2="30.843" y2="26.9275" gradientUnits="userSpaceOnUse">
<stop stop-color="#EEF5F9"/>
<stop offset="1" stop-color="#B7C3CA"/>
</linearGradient>
<linearGradient id="paint2_linear_135_123" x1="13.7652" y1="12.8844" x2="22.7205" y2="15.9587" gradientUnits="userSpaceOnUse">
<stop stop-color="#EEF5F9"/>
<stop offset="1" stop-color="#B7C3CA"/>
</linearGradient>
<clipPath id="clip0_135_123">
<rect width="26" height="26" fill="white" transform="translate(7 7)"/>
</clipPath>
</defs>
</svg>
