<svg width="40" height="40" viewBox="0 0 40 40" fill="none" xmlns="http://www.w3.org/2000/svg">
<g id="left_ic_konggaofenxi">
<g id="Frame">
<path id="Subtract" fill-rule="evenodd" clip-rule="evenodd" d="M30.3635 29.273H31.454C31.7825 29.273 32 29.4905 32 29.8175V30.9095C32 31.2365 31.7825 31.454 31.454 31.454H8.546C8.2175 31.454 8 31.2365 8 30.9095V29.8175C8 29.4905 8.2175 29.273 8.546 29.273H9.6365V10.727C9.6365 9.52702 10.6175 8.54602 11.8175 8.54602H20.546C21.746 8.54602 22.727 9.52702 22.727 10.727V29.273H23.8175V14H28.1825C29.3825 14 30.3635 14.9825 30.3635 16.1825V29.273ZM28.1825 24.9095C28.5095 24.9095 28.727 24.6905 28.727 24.365V24.3635V23.273C28.727 22.946 28.5095 22.727 28.1825 22.727H26C25.673 22.727 25.454 22.946 25.454 23.273V24.3635C25.454 24.6905 25.673 24.9095 26 24.9095H28.1825ZM28.1825 20.546C28.5095 20.546 28.727 20.327 28.727 20V18.9095C28.727 18.5825 28.5095 18.3635 28.1825 18.3635H26C25.673 18.3635 25.454 18.5825 25.454 18.9095V20C25.454 20.327 25.673 20.546 26 20.546H28.1825ZM13.89 25H12.728V14.752H13.89V19.092H18.832V14.752H19.98V25H18.832V20.1H13.89V25Z" fill="url(#paint0_linear_492_29721)"/>
</g>
</g>
<defs>
<linearGradient id="paint0_linear_492_29721" x1="9.01016" y1="9.27362" x2="30.6806" y2="27.5066" gradientUnits="userSpaceOnUse">
<stop stop-color="#EEF5F9"/>
<stop offset="1" stop-color="#B7C3CA"/>
</linearGradient>
</defs>
</svg>
