<svg width="40" height="40" viewBox="0 0 40 40" fill="none" xmlns="http://www.w3.org/2000/svg">
<g id="left_ic_lvdifenxi">
<path id="Vector" d="M12 8C17.274 11.077 20.497 14.59 21.67 18.54C22.843 22.487 23.286 26.307 23 30H24.149C23.775 27.766 24.106 25.386 25.142 22.86C26.178 20.334 28.012 18.047 30.642 16C29.525 19.084 28.858 21.75 28.642 24C28.425 26.25 28.759 28.25 29.642 30H31C31.2652 30 31.5196 30.1054 31.7071 30.2929C31.8946 30.4804 32 30.7348 32 31C32 31.2652 31.8946 31.5196 31.7071 31.7071C31.5196 31.8946 31.2652 32 31 32H9C8.73478 32 8.48043 31.8946 8.29289 31.7071C8.10536 31.5196 8 31.2652 8 31C8 30.7348 8.10536 30.4804 8.29289 30.2929C8.48043 30.1054 8.73478 30 9 30H10C10.883 28.25 11.216 26.25 11 24C10.784 21.75 10.117 19.084 9 16C11.63 18.047 13.464 20.334 14.5 22.86C15.536 25.386 15.867 27.766 15.493 30H16C17.197 26.683 17.434 23.105 16.71 19.266C15.987 15.426 14.417 11.67 12 8ZM27 10C24.726 12.526 23.314 15.436 22.764 18.728L22.629 18.254C22.182 16.75 21.459 15.301 20.452 13.91C21.622 11.594 23.804 10.29 27 10Z" fill="url(#paint0_linear_492_29728)"/>
</g>
<defs>
<linearGradient id="paint0_linear_492_29728" x1="9.01016" y1="8.76228" x2="31.51" y2="26.8317" gradientUnits="userSpaceOnUse">
<stop stop-color="#EEF5F9"/>
<stop offset="1" stop-color="#B7C3CA"/>
</linearGradient>
</defs>
</svg>
