<svg width="40" height="40" viewBox="0 0 40 40" fill="none" xmlns="http://www.w3.org/2000/svg">
<g id="left_ic_cimfenji">
<path id="Vector" d="M32.9985 21.5243C33.0421 20.5096 32.1018 20.1408 32.1018 20.1408L26.9016 17.8784C26.9016 17.8784 26.9132 13.9464 26.9016 12.8874C26.8871 11.8226 25.9613 11.4539 25.9613 11.4539C25.9613 11.4539 21.8464 9.7666 20.6247 9.14421C19.9863 8.81974 19.3246 9.14421 19.3246 9.14421C19.3246 9.14421 15.4534 10.9082 14.2549 11.4067C13.1609 11.8609 13.1783 12.8402 13.1783 12.8402V17.8459C13.1783 17.8459 9.76855 19.3651 8.33499 19.9462C6.96238 20.5007 7.0001 21.6659 7.0001 21.6659C7.0001 21.6659 7.01171 25.6598 7.0001 26.7011C6.98849 27.8249 7.97225 28.1789 7.97225 28.1789C7.97225 28.1789 11.2805 29.8927 12.862 30.636C14.0315 31.1847 14.7889 30.6537 14.7889 30.6537L19.9834 28.0225C19.9834 28.0225 24.0925 30.0136 25.0588 30.6419C26.1819 31.3676 26.9422 30.7658 26.9422 30.7658C26.9422 30.7658 31.5185 28.3765 32.2353 28.0402C32.9985 27.6804 32.9985 26.7925 32.9985 26.7925C32.9985 26.7925 32.955 22.539 32.9985 21.5243V21.5243ZM13.8951 23.5094L9.13883 21.3591L13.8922 19.2117L18.7355 21.3384L13.8951 23.5094V23.5094ZM19.2289 26.6952L14.6554 29.0491V24.8457L19.2289 22.8133V26.6952V26.6952ZM19.9805 15.144L14.8353 12.8815L19.9805 10.5394L25.3316 12.8815L19.9805 15.144V15.144ZM20.8017 16.5333L25.3316 14.5009V17.9197L20.8017 19.9963V16.5333ZM26.2051 23.5094L21.4721 21.3591L26.002 19.2117L30.9353 21.3591L26.2051 23.5094V23.5094ZM31.4286 26.8368L26.9422 29.055V24.8457L31.4286 22.8133V26.8368V26.8368Z" fill="url(#paint0_linear_135_128)"/>
</g>
<defs>
<linearGradient id="paint0_linear_135_128" x1="8.09434" y1="9.69876" x2="29.1883" y2="29.7192" gradientUnits="userSpaceOnUse">
<stop stop-color="#EEF5F9"/>
<stop offset="1" stop-color="#B7C3CA"/>
</linearGradient>
</defs>
</svg>
