<svg width="40" height="40" viewBox="0 0 40 40" fill="none" xmlns="http://www.w3.org/2000/svg">
<g id="left_ic_tianjixianfenxi">
<path id="Union" fill-rule="evenodd" clip-rule="evenodd" d="M8.8082 27.5047V21.8956H10.6307V19.1094H13.4563V21.8956H15.367V27.5047H19.0823L19.0204 14.3562H20.9516V11.5719H23.7501V14.3544H25.6251V27.5056H28.4404V18.1306H32.1876V17.1931H27.5029V26.5672H26.5626V13.4187H24.6876V10.6344H20.0151V13.4187H18.0782L18.1401 26.5672H16.3054V20.9581H14.3929V18.1719H9.6932V20.9581H7.8707V26.5672H6.99414V27.5047H8.8082ZM22.8126 6.875H21.8751V10.625H22.8126V6.875ZM12.5001 15.3125H11.5626V18.125H12.5001V15.3125ZM20 28.4375V15.3125H21.875V12.5H22.8125V15.3125H24.6875V28.4375H29.375V19.0625H32.1875V32.1875H6.875V28.4375H9.6875V22.8125H11.5625V20H12.6706V22.8125H14.375V28.4375H20Z" fill="url(#paint0_linear_510_28604)"/>
</g>
<defs>
<linearGradient id="paint0_linear_510_28604" x1="7.94041" y1="7.67897" x2="31.6707" y2="26.7366" gradientUnits="userSpaceOnUse">
<stop stop-color="#EEF5F9"/>
<stop offset="1" stop-color="#B7C3CA"/>
</linearGradient>
</defs>
</svg>
