<svg width="40" height="40" viewBox="0 0 40 40" fill="none" xmlns="http://www.w3.org/2000/svg">
<g id="left_ic_denggaoxianfenxi">
<path id="Union" fill-rule="evenodd" clip-rule="evenodd" d="M31.8725 18.4884C31.1593 12.5355 25.8495 7.78959 20.7988 7.52441C18.3913 7.39746 17.0561 8.3849 15.1719 9.77832C14.5226 10.2585 13.8081 10.7869 12.9621 11.3345C9.6549 13.4743 7 15.2422 7 19.5766C7 23.9141 10.3895 32.4609 19.4149 32.4609C28.4373 32.4609 32.5858 24.4383 31.8725 18.4884ZM19.4241 30.3669C11.9135 30.3669 9.08795 23.2557 9.08795 19.6467C9.08795 16.0347 11.2978 14.5655 14.0472 12.7854C14.754 12.3283 15.3504 11.8875 15.8921 11.4872L15.8921 11.4872C17.4601 10.3283 18.5698 9.50815 20.5702 9.61236C24.7735 9.83792 29.1963 13.7822 29.7876 18.7384C30.382 23.6916 26.9346 30.3669 19.4241 30.3669ZM27.7698 19.0097C27.2943 15.0441 23.7554 11.8832 20.3933 11.7064C18.788 11.6224 17.8965 12.2809 16.6376 13.2108C16.2066 13.5292 15.7325 13.8794 15.1719 14.2424C12.9682 15.6659 11.2003 16.8455 11.2003 19.7351C11.2003 22.6217 13.4559 28.3155 19.4728 28.3155C25.4867 28.3155 28.2422 22.9692 27.7698 19.0097ZM19.482 26.1758C15.0195 26.1758 13.34 21.9511 13.34 19.8052C13.34 17.6594 14.6538 16.7876 16.2875 15.7269C16.701 15.458 17.0511 15.1988 17.3695 14.9632C18.3072 14.2693 18.9702 13.7787 20.1647 13.8401C22.6672 13.9742 25.2916 16.3212 25.6452 19.2627C25.9988 22.2041 23.9444 26.1758 19.482 26.1758ZM20.1434 15.4679C21.8991 15.5624 23.7432 17.2083 23.9901 19.2749C24.237 21.3416 22.7952 24.1275 19.6648 24.1245C16.5344 24.1245 15.3548 21.1556 15.3548 19.6529C15.3548 18.1471 16.2784 17.5314 17.4245 16.7907C17.7178 16.6007 17.9655 16.4171 18.1907 16.2501C18.8434 15.7664 19.3072 15.4225 20.1434 15.4679ZM16.9185 19.7078C16.9185 20.6679 17.6714 22.5639 19.6709 22.5639C21.6705 22.5608 22.591 20.7838 22.4325 19.4609C22.274 18.1441 21.0974 17.0925 19.9757 17.0315C19.4439 17.0065 19.1477 17.2256 18.7281 17.5357C18.585 17.6415 18.4275 17.758 18.2414 17.8789C17.5068 18.3544 16.9185 18.7507 16.9185 19.7078Z" fill="url(#paint0_linear_510_28511)"/>
</g>
<defs>
<linearGradient id="paint0_linear_510_28511" x1="8.05019" y1="8.3058" x2="31.439" y2="27.0918" gradientUnits="userSpaceOnUse">
<stop stop-color="#EEF5F9"/>
<stop offset="1" stop-color="#B7C3CA"/>
</linearGradient>
</defs>
</svg>
