<svg width="40" height="40" viewBox="0 0 40 40" fill="none" xmlns="http://www.w3.org/2000/svg">
<g id="left_ic_kongjianjiansuo">
<path id="Union" fill-rule="evenodd" clip-rule="evenodd" d="M24.5 15C23.361 15 22.2744 15.224 21.2817 15.6304V8H28.5632C29.0138 7.99934 29.4601 8.08752 29.8765 8.25949C30.293 8.43145 30.6715 8.68384 30.9903 9.0022C31.3091 9.32056 31.562 9.69866 31.7346 10.1149C31.9072 10.5311 31.996 10.9772 31.996 11.4278V19.489C30.5634 16.8171 27.7439 15 24.5 15ZM27.9791 29.1918C27.2621 29.6516 26.4619 29.976 25.618 30.1439C24.2895 30.4082 22.9124 30.2725 21.661 29.7542C20.4095 29.2358 19.3398 28.3579 18.5873 27.2317C17.8347 26.1054 17.433 24.7812 17.433 23.4266C17.4326 22.5269 17.6094 21.636 17.9534 20.8047C18.2974 19.9733 18.8018 19.2179 19.4378 18.5816C20.0739 17.9453 20.829 17.4405 21.6602 17.0961C22.4913 16.7517 23.3822 16.5744 24.2819 16.5744V16.5778C25.6365 16.5778 26.9606 16.9795 28.0869 17.732C29.2132 18.4846 30.091 19.5542 30.6094 20.8057C31.1278 22.0572 31.2634 23.4342 30.9992 24.7628C30.7514 26.0086 30.1624 27.1592 29.3002 28.0875L31.7488 30.5361C31.9096 30.6969 32 30.915 32 31.1425C32 31.3699 31.9096 31.588 31.7488 31.7488C31.588 31.9097 31.3699 32 31.1425 32C30.915 32 30.6969 31.9097 30.5361 31.7488L27.9791 29.1918ZM21.0041 19.4539C21.9284 18.6966 23.0869 18.2835 24.2819 18.285C24.9574 18.2808 25.6269 18.4116 26.2511 18.6698C26.8753 18.928 27.4416 19.3083 27.9168 19.7884C28.7637 20.6314 29.2919 21.7422 29.4113 22.9312C29.5306 24.1202 29.2337 25.3138 28.5712 26.3083C27.9087 27.3028 26.9217 28.0367 25.7785 28.3847C24.6353 28.7327 23.4068 28.6732 22.3026 28.2165C21.1983 27.7598 20.2867 26.9341 19.7233 25.8802C19.16 24.8264 18.9797 23.6097 19.2132 22.4378C19.4468 21.2659 20.0797 20.2113 21.0041 19.4539ZM18.7093 16.9202C18.5472 17.0589 18.3902 17.2025 18.2232 17.3696C17.814 17.7783 17.4469 18.2271 17.1274 18.7093H8V11.4278C8 10.5187 8.36114 9.64681 9.00397 9.00397C9.6468 8.36114 10.5187 8 11.4278 8H18.7093V16.9202ZM16.3653 26.7079C16.7953 27.7477 17.4267 28.6922 18.2232 29.487C18.3852 29.6474 18.5472 29.7977 18.7093 29.9364V31.991H11.4278C10.5187 31.991 9.6468 31.6299 9.00397 30.9871C8.36114 30.3442 8 29.4724 8 28.5633V21.2818H15.9848C15.8099 21.984 15.7202 22.7047 15.7175 23.4283C15.7151 24.5535 15.9353 25.6681 16.3653 26.7079Z" fill="url(#paint0_linear_135_54)"/>
</g>
<defs>
<linearGradient id="paint0_linear_135_54" x1="9.01016" y1="8.76228" x2="31.51" y2="26.8317" gradientUnits="userSpaceOnUse">
<stop stop-color="#EEF5F9"/>
<stop offset="1" stop-color="#B7C3CA"/>
</linearGradient>
</defs>
</svg>
