<svg width="40" height="40" viewBox="0 0 40 40" fill="none" xmlns="http://www.w3.org/2000/svg">
<g id="left_ic_kongguifenxi">
<path id="Subtract" fill-rule="evenodd" clip-rule="evenodd" d="M30.1542 9H9.84578C9.37889 9 9 9.36802 9 9.8232V31.1792C9.00258 31.399 9.09306 31.6089 9.25161 31.7627C9.41015 31.9166 9.62383 32.0019 9.84578 32H30.1542C30.6211 32 31 31.6319 31 31.178V9.82199C31 9.36802 30.6211 9 30.1542 9ZM10.6928 23.7336L29.3072 23.742V23.7432V30.2151H10.6928V23.7336ZM15.9813 26.2867H14.2886V29.5723H15.9813V26.2867ZM21.0633 25.2867H19.3706L19.3644 29.5723H21.0633V25.2867ZM26.1441 24.2867H24.4526L24.4416 29.5723H26.1441V24.2867ZM24.3058 17.2069C23.9587 17.798 23.4958 18.33 22.9752 18.7438L24.4215 21.4039C24.7686 21.936 24.595 22.6453 24.0165 23L21.9917 19.3941C21.2974 19.6897 20.5453 19.867 19.7933 19.867C19.0412 19.867 18.2891 19.6897 17.5949 19.335L15.57 22.9409C15.0493 22.6453 14.8179 21.936 15.1651 21.3448L18.1155 16.1429C17.7106 15.7291 17.4792 15.197 17.4792 14.5468C17.4792 13.4236 18.2312 12.5369 19.2147 12.2414V11H20.3718V12.2414C21.3553 12.5369 22.1074 13.4236 22.1074 14.5468C22.1074 15.197 21.876 15.7291 21.5288 16.1429L22.3966 17.7389C22.7437 17.4433 23.0909 17.0296 23.3223 16.6158C23.6694 15.9655 23.8429 15.2562 23.8429 14.5468H25C25 15.4926 24.7686 16.3793 24.3058 17.2069ZM20.9503 14.5468C20.9503 13.8966 20.4296 13.3645 19.7933 13.3645C19.1569 13.3645 18.6362 13.8966 18.6362 14.5468C18.6362 15.197 19.1569 15.7291 19.7933 15.7291C20.4296 15.7291 20.9503 15.197 20.9503 14.5468ZM18.1734 18.33C18.6941 18.5665 19.2726 18.6847 19.7933 18.6847C20.3139 18.6847 20.8925 18.5665 21.2974 18.33L20.4296 16.7931C20.1982 16.8522 19.9668 16.9113 19.7354 16.9113C19.504 16.9113 19.2726 16.8522 19.0412 16.7931L18.1734 18.33Z" fill="url(#paint0_linear_510_28597)"/>
</g>
<defs>
<linearGradient id="paint0_linear_510_28597" x1="9.92598" y1="9.73052" x2="31.2624" y2="26.1207" gradientUnits="userSpaceOnUse">
<stop stop-color="#EEF5F9"/>
<stop offset="1" stop-color="#B7C3CA"/>
</linearGradient>
</defs>
</svg>
