<svg width="40" height="40" viewBox="0 0 40 40" fill="none" xmlns="http://www.w3.org/2000/svg">
<g id="left_ic_duanmianfenxi">
<path id="Union" fill-rule="evenodd" clip-rule="evenodd" d="M8.49999 11C8.49999 9.89543 9.39542 9 10.5 9H28.5C29.6046 9 30.5 9.89543 30.5 11V16.7639L21.1847 21.4215L18.1641 16.8905C17.6136 16.0648 16.5407 15.7676 15.6438 16.1925L8.49999 19.5764V11ZM21.3944 25.7888L30.5 21.236V29C30.5 30.1046 29.6046 31 28.5 31H10.5C9.39542 31 8.49999 30.1046 8.49999 29V24.0024L15.7944 20.5472L18.8359 25.1094C19.3954 25.9486 20.4922 26.2399 21.3944 25.7888ZM32.9472 18.8944C33.4412 18.6474 33.6414 18.0468 33.3944 17.5528C33.1474 17.0588 32.5468 16.8586 32.0528 17.1056L20.8424 22.7108L17.332 17.4453C17.0568 17.0324 16.5204 16.8838 16.0719 17.0963L6.5719 21.5963C6.07278 21.8327 5.85983 22.429 6.09625 22.9281C6.33268 23.4272 6.92896 23.6402 7.42808 23.4037L16.1472 19.2736L19.6679 24.5547C19.9477 24.9743 20.4961 25.12 20.9472 24.8944L32.9472 18.8944Z" fill="url(#paint0_linear_510_28559)"/>
</g>
<defs>
<linearGradient id="paint0_linear_510_28559" x1="7.15725" y1="9.69876" x2="28.2798" y2="30.9033" gradientUnits="userSpaceOnUse">
<stop stop-color="#EEF5F9"/>
<stop offset="1" stop-color="#B7C3CA"/>
</linearGradient>
</defs>
</svg>
