<svg width="40" height="40" viewBox="0 0 40 40" fill="none" xmlns="http://www.w3.org/2000/svg">
<g id="left_ic_kongjiantongji">
<path id="Vector" d="M21.8934 27.5101L27.3961 30.6875C24.8757 32.4384 21.8151 33.2364 18.7608 32.9392L21.8934 27.5101V27.5101ZM7.04333 18.9355L19.3905 26.0644L15.7913 32.3008C13.2883 31.4435 11.1064 29.8431 9.5366 27.7134C7.96684 25.5836 7.08396 23.0258 7.00578 20.3812L7 19.9984C7 19.6403 7.01444 19.2864 7.04333 18.9355ZM15.2858 20.3581L22.8221 7.30757C25.0362 7.80096 27.0827 8.865 28.7584 10.394C30.434 11.923 31.6806 13.8638 32.3741 16.0236C33.0677 18.1834 33.1841 20.4871 32.7119 22.7058C32.2397 24.9245 31.1953 26.9811 29.6824 28.6713L15.2844 20.3581L22.8221 7.30757L15.2858 20.3581ZM25.7756 12.7771C25.0095 12.7771 24.2748 13.0814 23.7331 13.6231C23.1914 14.1648 22.8871 14.8995 22.8871 15.6656C22.8871 17.1503 25.3914 20.8795 25.7366 21.3878L25.7756 21.4456C25.7756 21.4456 28.6642 17.2601 28.6642 15.6656C28.6642 14.8995 28.3598 14.1648 27.8181 13.6231C27.2764 13.0814 26.5417 12.7771 25.7756 12.7771V12.7771ZM19.6591 7.00427L12.7829 18.9138L7.64415 15.9458C8.47875 13.4058 10.0759 11.1848 12.218 9.58507C14.3602 7.98535 16.9434 7.08469 19.6158 7.00572L19.6591 7.00427V7.00427ZM25.7756 14.2213C26.1587 14.2213 26.526 14.3735 26.7969 14.6444C27.0677 14.9152 27.2199 15.2826 27.2199 15.6656C27.2199 16.0487 27.0677 16.416 26.7969 16.6869C26.526 16.9577 26.1587 17.1099 25.7756 17.1099C25.3926 17.1099 25.0252 16.9577 24.7544 16.6869C24.4835 16.416 24.3313 16.0487 24.3313 15.6656C24.3313 15.2826 24.4835 14.9152 24.7544 14.6444C25.0252 14.3735 25.3926 14.2213 25.7756 14.2213V14.2213Z" fill="url(#paint0_linear_135_112)"/>
</g>
<defs>
<linearGradient id="paint0_linear_135_112" x1="8.0942" y1="7.82994" x2="32.4652" y2="27.4029" gradientUnits="userSpaceOnUse">
<stop stop-color="#EEF5F9"/>
<stop offset="1" stop-color="#B7C3CA"/>
</linearGradient>
</defs>
</svg>
