<svg width="40" height="40" viewBox="0 0 40 40" fill="none" xmlns="http://www.w3.org/2000/svg">
<g id="left_ic_poumianfenxi">
<path id="Vector" d="M30.5774 29.7237H23.6514V28.0673H30.1735C29.9803 28.0683 30.0883 28.0263 30.168 27.9487C30.2477 27.8711 30.2936 27.7644 30.2936 27.6534V15.2402C30.2936 15.0128 30.1047 14.8274 30.1735 14.8274H23.6514V13.172H30.5796C31.3624 13.172 32 13.7906 32 15.1421V28.3421C32 29.104 31.3624 29.7237 30.5774 29.7237ZM19.9984 33C19.137 33 18.4328 32.4514 18.4328 31.9923V8.83416C18.4339 8.37397 19.1381 8 20.0005 8C20.863 8 21.5639 8.37397 21.5639 8.83416V31.9923C21.5639 32.4514 20.863 33 20.0005 33H19.9984ZM19.2942 26.6199H11.0351C9.01315 26.6199 8 25.8547 8 24.9084V17.9862C8 17.04 9.01315 16.2759 11.0351 16.2759H19.2942C20.5497 16.2759 21.5639 17.04 21.5639 17.9862V24.9084C21.5639 25.8547 20.5464 26.6188 19.2942 26.6188V26.6199Z" fill="url(#paint0_linear_510_28507)"/>
</g>
<defs>
<linearGradient id="paint0_linear_510_28507" x1="9.01016" y1="8.79404" x2="32.2235" y2="26.6908" gradientUnits="userSpaceOnUse">
  <stop stop-color="#EEF5F9"/>
  <stop offset="1" stop-color="#B7C3CA"/>
</linearGradient>
</defs>
</svg>
