<svg width="16" height="16" viewBox="0 0 16 16" fill="none" xmlns="http://www.w3.org/2000/svg">
<g id="left_ic_shouqi">
<path id="Vector" d="M0.624353 1.32898H14.3601C14.7764 1.32898 14.9845 1.5371 14.9845 1.95333C14.9845 2.36957 14.7764 2.57769 14.3601 2.57769H0.624353C0.208118 2.57769 0 2.36957 0 1.95333C0 1.5371 0.208118 1.32898 0.624353 1.32898V1.32898Z" fill="white" fill-opacity="0.7"/>
<path id="Vector_2" d="M0.624353 12.5674H14.3601C14.7764 12.5674 14.9845 12.7755 14.9845 13.1917C14.9845 13.608 14.7764 13.8161 14.3601 13.8161H0.624353C0.208118 13.8161 0 13.608 0 13.1917C0 12.7755 0.208118 12.5674 0.624353 12.5674V12.5674Z" fill="white" fill-opacity="0.7"/>
<path id="Vector_3" d="M5.61917 8.82129H14.3601C14.7763 8.82129 14.9845 9.02941 14.9845 9.44564C14.9845 9.86188 14.7763 10.07 14.3601 10.07H5.61917C5.20293 10.07 4.99481 9.86188 4.99481 9.44564C4.99481 9.02941 5.20293 8.82129 5.61917 8.82129Z" fill="white" fill-opacity="0.7"/>
<path id="Vector_4" d="M5.61917 5.07507H14.3601C14.7763 5.07507 14.9845 5.28319 14.9845 5.69943C14.9845 6.11566 14.7763 6.32378 14.3601 6.32378H5.61917C5.20293 6.32378 4.99481 6.11566 4.99481 5.69943C4.99481 5.28319 5.20293 5.07507 5.61917 5.07507Z" fill="white" fill-opacity="0.7"/>
<path id="Vector_5" d="M0.091 7.87577L3.42505 10.2376C3.45751 10.2606 3.4957 10.2742 3.53541 10.2769C3.57512 10.2796 3.61479 10.2712 3.65005 10.2528C3.6853 10.2343 3.71477 10.2065 3.73519 10.1723C3.75562 10.1382 3.7662 10.099 3.76577 10.0592V5.33732C3.7662 5.29753 3.75562 5.25839 3.73519 5.22423C3.71477 5.19007 3.6853 5.16222 3.65005 5.14376C3.61479 5.1253 3.57512 5.11695 3.53541 5.11963C3.4957 5.12231 3.45751 5.13591 3.42505 5.15894L0.091 7.52256C0.063005 7.54272 0.040204 7.56925 0.0244774 7.59995C0.00875082 7.63066 0.000549316 7.66466 0.000549316 7.69916C0.000549316 7.73366 0.00875082 7.76767 0.0244774 7.79837C0.040204 7.82908 0.063005 7.8556 0.091 7.87577V7.87577Z" fill="white" fill-opacity="0.7"/>
</g>
</svg>
