<svg width="40" height="40" viewBox="0 0 40 40" fill="none" xmlns="http://www.w3.org/2000/svg">
<g id="left_ic_fencengfenhu">
<path id="Vector" d="M26.5437 10.2359C26.4406 10.2359 26.3562 10.1516 26.3562 10.0484V8.375C26.3562 8.16875 26.1875 8 25.9812 8H14.014C13.8078 8 13.639 8.16875 13.639 8.375V10.0484C13.639 10.1516 13.5546 10.2359 13.4515 10.2359H9.4812V32H17.3609V29.9516C17.3609 29.8484 17.4453 29.7641 17.5484 29.7641H22.4562C22.5593 29.7641 22.6437 29.8484 22.6437 29.9516V32H30.5187V10.2359H26.5437ZM16.1445 25.9062V23.6937C16.1445 23.6422 16.1867 23.6 16.2382 23.6H18.6218C18.6734 23.6 18.7156 23.6422 18.7156 23.6937V25.9062C18.7156 25.9578 18.6734 26 18.6218 26H16.2382C16.1867 26 16.1445 25.9578 16.1445 25.9062ZM23.7617 16.4H21.3781C21.3265 16.4 21.2843 16.3578 21.2843 16.3062V14.0938C21.2843 14.0422 21.3265 14 21.3781 14H23.7617C23.8132 14 23.8554 14.0422 23.8554 14.0938V16.3062C23.8554 16.3578 23.8132 16.4 23.7617 16.4ZM23.8554 18.8V21.1063C23.8554 21.1578 23.8132 21.2 23.7617 21.2H21.3781C21.3265 21.2 21.2843 21.1578 21.2843 21.1063V18.8937C21.2843 18.8422 21.3265 18.8 21.3781 18.8H23.8554ZM18.6218 16.4H16.2382C16.1867 16.4 16.1445 16.3578 16.1445 16.3062V14.0938C16.1445 14.0422 16.1867 14 16.2382 14H18.6218C18.6734 14 18.7156 14.0422 18.7156 14.0938V16.3062C18.7156 16.3578 18.6734 16.4 18.6218 16.4ZM18.7156 18.8937V21.1063C18.7156 21.1578 18.6734 21.2 18.6218 21.2H16.2382C16.1867 21.2 16.1445 21.1578 16.1445 21.1063V18.8937C16.1445 18.8422 16.1867 18.8 16.2382 18.8H18.6218C18.6734 18.8 18.7156 18.8422 18.7156 18.8937ZM21.2843 25.9062V23.6937C21.2843 23.6422 21.3265 23.6 21.3781 23.6H23.7617C23.8132 23.6 23.8554 23.6422 23.8554 23.6937V25.9062C23.8554 25.9578 23.8132 26 23.7617 26H21.3781C21.3265 26 21.2843 25.9578 21.2843 25.9062Z" fill="url(#paint0_linear_510_28567)"/>
</g>
<defs>
<linearGradient id="paint0_linear_510_28567" x1="10.3667" y1="8.76228" x2="32.0593" y2="24.033" gradientUnits="userSpaceOnUse">
<stop stop-color="#EEF5F9"/>
<stop offset="1" stop-color="#B7C3CA"/>
</linearGradient>
</defs>
</svg>
