<svg width="40" height="40" viewBox="0 0 40 40" fill="none" xmlns="http://www.w3.org/2000/svg">
<g id="left_ic_tianwafangfenxi">
<path id="Union" fill-rule="evenodd" clip-rule="evenodd" d="M18.8636 7.19482V8.16735H15.946V7.19482H18.8636ZM23.7263 7.19482V8.16735H20.8087V7.19482H23.7263ZM27.6164 7.19482V8.16735H25.6713V7.19482H27.6164ZM27.6164 11.0849H26.6438V9.13988H27.6164V11.0849ZM26.6438 14.855V13.03H27.6164V13.4442L31.2343 8.19557C31.475 7.84652 31.9146 7.69456 32.3194 7.82056C32.7242 7.94656 33 8.32121 33 8.74516V32.0042C33 32.539 32.5665 32.9725 32.0316 32.9725H7.96837C7.64583 32.9725 7.34446 32.8119 7.16458 32.5442C6.98471 32.2765 6.94993 31.9368 7.07183 31.6382L13.5255 15.8287C13.6618 15.495 13.9722 15.2645 14.3311 15.2307C14.69 15.1968 15.038 15.3651 15.2343 15.6675L16.0475 16.9201H16.9186V18.2619L20.4963 23.7732L26.6438 14.855ZM26.6439 18.8652H27.6164V16.9201H27.5726L31.0633 11.8562V31.0358H26.6439V30.5355H27.6164V28.5905H26.6439V26.6454H27.6164V24.7003H26.6439V22.7553H27.6164V20.8102H26.6439V18.8652ZM15.946 30.5355H16.9186V28.5905H15.946V30.5355ZM15.946 26.6454H16.9186V24.7003H15.946V26.6454ZM15.946 22.7553H16.9186V21.8188L16.9186 21.8189V31.0358H9.40961L14.6185 18.2758L16.2638 20.8102H15.946V22.7553ZM15.946 14.9751H16.9186V13.03H15.946V14.9751ZM15.946 11.0849H16.9186V9.13988H15.946V11.0849Z" fill="url(#paint0_linear_510_28519)"/>
</g>
<defs>
<linearGradient id="paint0_linear_510_28519" x1="8.09434" y1="8.01357" x2="32.3046" y2="27.6244" gradientUnits="userSpaceOnUse">
<stop stop-color="#EEF5F9"/>
<stop offset="1" stop-color="#B7C3CA"/>
</linearGradient>
</defs>
</svg>
