<svg width="40" height="40" viewBox="0 0 40 40" fill="none" xmlns="http://www.w3.org/2000/svg">
<g id="gongju_ic_dixingkaiwa">
<path id="Vector" d="M21.4785 11.0201C21.1467 10.6885 20.9602 10.2386 20.96 9.76948C20.9599 9.30035 21.1461 8.85037 21.4777 8.51853C21.8092 8.18669 22.2591 8.00017 22.7282 8C23.1973 7.99983 23.6472 8.18604 23.9791 8.51764L31.4824 16.0214C31.6466 16.1857 31.7768 16.3807 31.8656 16.5954C31.9544 16.81 32.0001 17.04 32 17.2723C31.9999 17.5046 31.9541 17.7346 31.8651 17.9492C31.7762 18.1638 31.6458 18.3587 31.4815 18.5229C31.3172 18.6871 31.1222 18.8173 30.9075 18.9062C30.6929 18.995 30.4629 19.0406 30.2306 19.0406C29.9983 19.0405 29.7684 18.9947 29.5538 18.9057C29.3392 18.8167 29.1443 18.6864 28.9801 18.522L26.4796 16.0214L20.2283 22.2713L22.7288 24.7754C23.0353 25.0818 23.2187 25.49 23.2441 25.9226C23.2696 26.3552 23.1353 26.7821 22.8667 27.1222L22.7288 27.2761L18.5235 31.4816C18.2921 31.7132 18.001 31.876 17.6825 31.9519C17.364 32.0277 17.0308 32.0137 16.7198 31.9113L11.0733 30.0562C10.81 29.9697 10.5707 29.8225 10.3747 29.6265C10.1787 29.4305 10.0315 29.1912 9.94504 28.9279L8.08822 23.2811C7.98608 22.9699 7.97234 22.6365 8.04852 22.318C8.12471 21.9995 8.28783 21.7084 8.51971 21.4772L12.725 17.2717C13.0566 16.9402 13.5063 16.7539 13.9752 16.7539C14.4441 16.7539 14.8939 16.9402 15.2255 17.2717L17.726 19.7706L23.9791 13.5207L21.4785 11.0201Z" fill="url(#paint0_linear_195_1793)"/>
</g>
<defs>
<linearGradient id="paint0_linear_195_1793" x1="9.01016" y1="8.76228" x2="31.51" y2="26.8317" gradientUnits="userSpaceOnUse">
<stop stop-color="#EEF5F9"/>
<stop offset="1" stop-color="#B7C3CA"/>
</linearGradient>
</defs>
</svg>
