<svg width="40" height="40" viewBox="0 0 40 40" fill="none" xmlns="http://www.w3.org/2000/svg">
<g id="left_ic_tongshifenxi">
<path id="Union" fill-rule="evenodd" clip-rule="evenodd" d="M34.0613 18.3108C34.3358 18.3108 34.6054 18.383 34.8432 18.5202C35.0808 18.6574 35.2782 18.8548 35.4155 19.0925C35.5527 19.3302 35.625 19.5998 35.625 19.8743C35.625 20.1487 35.5528 20.4184 35.4156 20.6561C35.2783 20.8938 35.0809 21.0912 34.8432 21.2284C34.6055 21.3656 34.3358 21.4379 34.0614 21.4379C33.7869 21.4379 33.5173 21.3656 33.2796 21.2284C33.0641 21.104 32.8928 20.9275 32.761 20.7264H29.3708L29.379 24.8401L24.2841 29.9348V29.9532H9.52731V20.7802H7.20894C7.08022 20.9637 6.92112 21.1272 6.72041 21.243C6.48268 21.3802 6.21307 21.4523 5.93862 21.4523C5.66418 21.4523 5.39457 21.3802 5.15684 21.243C4.91916 21.1058 4.72178 20.9084 4.58453 20.6707C4.44729 20.4331 4.37503 20.1634 4.375 19.889C4.375 19.0254 5.07512 18.3253 5.93866 18.3253C6.51622 18.3253 7.01503 18.6421 7.28578 19.108H9.52731V15.1961H9.53753L14.687 10.0472L29.3493 10.0549L29.3673 19.0543H32.7365C32.8702 18.8384 33.052 18.6515 33.2795 18.5202C33.5173 18.383 33.7869 18.3108 34.0613 18.3108ZM11.1992 28.2813H22.6122V16.8683H11.1992V19.0574H12.2112V20.7292H11.1992V28.2813ZM24.2841 27.5703L27.6771 24.1771L27.6772 20.7264H25.9894V19.0543H27.6772V12.8331L24.2841 16.2264V19.0574H25.16V20.7292H24.2841V27.5703ZM19.6639 19.0573H17.8842V20.7291H19.6639V19.0573ZM22.1103 19.0573H20.3309V20.7291H22.1103V19.0573ZM17.1015 19.0573H15.3222V20.7291H17.1015V19.0573ZM14.628 19.0573H12.8484V20.7291H14.628V19.0573Z" fill="url(#paint0_linear_510_28591)"/>
</g>
<defs>
<linearGradient id="paint0_linear_510_28591" x1="5.69031" y1="10.6795" x2="24.3006" y2="34.1427" gradientUnits="userSpaceOnUse">
<stop stop-color="#EEF5F9"/>
<stop offset="1" stop-color="#B7C3CA"/>
</linearGradient>
</defs>
</svg>
