<svg width="32" height="32" viewBox="0 0 32 32" fill="none" xmlns="http://www.w3.org/2000/svg">
<g id="ic_huizhi">
<path id="Vector" d="M21.5701 8.54349C21.4842 8.40782 21.3682 8.29378 21.2311 8.21021C21.094 8.12665 20.9395 8.07582 20.7796 8.06168C20.6196 8.04753 20.4586 8.07045 20.309 8.12866C20.1593 8.18686 20.0251 8.27878 19.9168 8.39727L10.3082 18.0059L14.0325 21.6833L23.6328 12.082C23.7484 11.9921 23.8414 11.8765 23.9045 11.7444C23.9675 11.6122 23.9988 11.4672 23.9959 11.3208C23.9929 11.1744 23.9558 11.0308 23.8875 10.9013C23.8192 10.7718 23.7216 10.66 23.6025 10.5749L21.5701 8.54349ZM9.62303 18.7056L8.8157 20.9449L11.0998 23.183L13.2931 22.4217L9.62303 18.7056ZM8.37705 21.937L8.00732 23.9684L10.0847 23.6906L8.37705 21.937Z" fill="url(#paint0_linear_617_34011)"/>
</g>
<defs>
<linearGradient id="paint0_linear_617_34011" x1="8.68029" y1="8.56297" x2="23.6121" y2="20.6133" gradientUnits="userSpaceOnUse">
<stop stop-color="#EEF5F9"/>
<stop offset="1" stop-color="#B7C3CA"/>
</linearGradient>
</defs>
</svg>
