<svg width="20" height="20" viewBox="0 0 20 20" fill="none" xmlns="http://www.w3.org/2000/svg">
<g id="ic_fenxijieguo">
<g id="xuhao_bg" clip-path="url(#clip0_511_29003)">
<path id="Vector" opacity="0.8" d="M2.68292 19.2592H0.243896V0.740723H2.68292" stroke="#4080FF" stroke-miterlimit="10"/>
<path id="Vector_2" opacity="0.3" d="M16.0976 19.2593H3.90247" stroke="#4080FF" stroke-miterlimit="10"/>
<path id="Vector_3" opacity="0.8" d="M17.317 0.740723H19.756V19.2592H17.317" stroke="#4080FF" stroke-miterlimit="10"/>
<path id="Vector_4" opacity="0.3" d="M3.90247 0.740723H16.0976" stroke="#4080FF" stroke-miterlimit="10"/>
<path id="Vector_5" opacity="0.2" d="M18 2H2V18H18V2Z" fill="#4080FF"/>
</g>
<g id="Frame" clip-path="url(#clip1_511_29003)">
<path id="Vector_6" d="M8.86644 5.95132L11.4545 8.53933C11.7196 8.80449 11.7196 9.06966 11.4545 9.33482C11.1893 9.59999 10.9241 9.59999 10.659 9.33482L8.07094 6.74681C7.80578 6.48165 7.80578 6.21648 8.07094 5.95132C8.33611 5.68615 8.60127 5.68615 8.86644 5.95132Z" fill="#4080FF"/>
<path id="Vector_7" d="M10.6494 8.54815L15.03 4.16762C15.2951 3.90246 15.5603 3.90246 15.8255 4.16762C16.0906 4.43279 16.0906 4.69795 15.8255 4.96312L11.4449 9.34365C11.1798 9.60881 10.9146 9.60881 10.6494 9.34365C10.3843 9.07848 10.3843 8.81332 10.6494 8.54815Z" fill="#4080FF"/>
<path id="Vector_8" d="M8.87116 6.75169L4.96263 10.6602C4.69747 10.9254 4.4323 10.9254 4.16714 10.6602C3.90197 10.3951 3.90197 10.1299 4.16714 9.86473L8.07567 5.9562C8.34083 5.69103 8.606 5.69103 8.87116 5.9562C9.13633 6.22136 9.13633 6.48653 8.87116 6.75169Z" fill="#4080FF"/>
<path id="Vector_9" d="M16 4.5625V6.4375C16 6.8125 15.8125 7 15.4375 7C15.0625 7 14.875 6.8125 14.875 6.4375V4.5625C14.875 4.1875 15.0625 4 15.4375 4C15.8125 4 16 4.1875 16 4.5625Z" fill="#4080FF"/>
<path id="Vector_10" d="M15.4375 5.125H13.5625C13.1875 5.125 13 4.9375 13 4.5625C13 4.1875 13.1875 4 13.5625 4H15.4375C15.8125 4 16 4.1875 16 4.5625C16 4.9375 15.8125 5.125 15.4375 5.125Z" fill="#4080FF"/>
<path id="Vector_11" d="M5.26746 16V12.8125C5.26746 12.6633 5.32672 12.5202 5.43221 12.4148C5.5377 12.3093 5.68077 12.25 5.82996 12.25C5.97914 12.25 6.12221 12.3093 6.2277 12.4148C6.33319 12.5202 6.39246 12.6633 6.39246 12.8125V16H5.26746ZM7.89246 16V9.8125C7.89246 9.66332 7.95172 9.52024 8.05721 9.41475C8.1627 9.30926 8.30577 9.25 8.45496 9.25C8.60414 9.25 8.74721 9.30926 8.8527 9.41475C8.95819 9.52024 9.01746 9.66332 9.01746 9.8125V16H7.89246ZM13.1425 16V9.0625C13.1425 8.91332 13.2017 8.77024 13.3072 8.66475C13.4127 8.55926 13.5558 8.5 13.705 8.5C13.8541 8.5 13.9972 8.55926 14.1027 8.66475C14.2082 8.77024 14.2675 8.91332 14.2675 9.0625V16H13.1425ZM10.5175 16V12.0625C10.5175 11.9133 10.5767 11.7702 10.6822 11.6648C10.7877 11.5593 10.9308 11.5 11.08 11.5C11.2291 11.5 11.3722 11.5593 11.4777 11.6648C11.5832 11.7702 11.6425 11.9133 11.6425 12.0625V16H10.5175Z" fill="#4080FF"/>
</g>
</g>
<defs>
<clipPath id="clip0_511_29003">
<rect width="20" height="20" fill="white"/>
</clipPath>
<clipPath id="clip1_511_29003">
<rect width="12" height="12" fill="white" transform="translate(4 4)"/>
</clipPath>
</defs>
</svg>
