<svg width="5486" height="110" viewBox="0 0 5486 110" fill="none" xmlns="http://www.w3.org/2000/svg">
<g clip-path="url(#clip0_20_13413)">
<path d="M1982 33.0395H1628H0V0H5486V33.5L3922.5 33.0374H3568.5C3537.5 33.0374 3376.5 31.5374 3320.5 47.5374C3250.5 67.5374 3196 90.5372 3127.5 96.0372C3084.27 99.5083 2939.87 99.793 2825.27 99.7821C2808.93 99.7805 2793.19 99.7729 2778.45 99.7677C2761.05 99.773 2742.14 99.7834 2722.38 99.7844C2608.25 99.7902 2465.87 99.4817 2423 96.0393C2354.5 90.5393 2300 67.5395 2230 47.5395C2174 31.5395 2013 33.0395 1982 33.0395Z" fill="url(#paint0_linear_20_13413)"/>
<path d="M2234 43C2244.83 45 2270.5 50.3 2286.5 55.5C2306.5 62 2371 84 2416.5 89C2462 94 2528 94.5 2554.5 94.5C2574.64 94.5 2660.15 94.1992 2706.52 94.0262C2711.17 94.0089 2715.75 93.2631 2720.23 92.0354C2722.79 91.334 2725.47 90.6302 2727.82 90.0158C2731.59 89.027 2735.47 88.5 2739.37 88.5C2749.98 88.5 2771.14 88.5 2783.5 88.5" stroke="url(#paint1_linear_20_13413)" stroke-width="2"/>
<path d="M3317.5 43C3306.67 45 3281 50.3 3265 55.5C3245 62 3180.5 84 3135 89C3089.5 94 3023.5 94.5 2997 94.5C2976.86 94.5 2891.35 94.1992 2844.98 94.0262C2840.33 94.0089 2835.75 93.2631 2831.27 92.0354C2828.71 91.334 2826.03 90.6302 2823.68 90.0158C2819.91 89.027 2816.03 88.5 2812.13 88.5C2801.52 88.5 2780.36 88.5 2768 88.5" stroke="url(#paint2_linear_20_13413)" stroke-width="2"/>
<g opacity="0.88" filter="url(#filter0_f_20_13413)">
<path d="M1628 33.0395H1982C2013 33.0395 2174 31.5395 2230 47.5395C2300 67.5395 2354.5 90.5393 2423 96.0393C2491.5 101.539 2814 99.0393 2869.5 100.039M3922.5 33.0374H3568.5C3537.5 33.0374 3376.5 31.5374 3320.5 47.5374C3250.5 67.5374 3196 90.5372 3127.5 96.0372C3059 101.537 2736.5 99.0372 2681 100.037" stroke="url(#paint3_linear_20_13413)" stroke-width="5"/>
</g>
<path d="M1628 33.0395H1982C2013 33.0395 2174 31.5395 2230 47.5395C2300 67.5395 2354.5 90.5393 2423 96.0393C2491.5 101.539 2814 99.0393 2869.5 100.039M3922.5 33.0374H3568.5C3537.5 33.0374 3376.5 31.5374 3320.5 47.5374C3250.5 67.5374 3196 90.5372 3127.5 96.0372C3059 101.537 2736.5 99.0372 2681 100.037" stroke="url(#paint4_linear_20_13413)" stroke-width="2"/>
<path d="M2014 37.1601C2018.78 36.9726 2025.5 36.9222 2033.35 37.1601H3517.15C3525 36.9222 3531.72 36.9726 3536.5 37.1601H3517.15C3497.07 37.7681 3469.56 40.2596 3448 47.1601C3410.5 59.1601 3350 85.6602 3293 89.1602C3248.9 91.8679 2939.39 92.3 2775.25 92.1748C2611.11 92.3 2301.6 91.8679 2257.5 89.1602C2200.5 85.6602 2140 59.1601 2102.5 47.1601C2080.94 40.2596 2053.43 37.7681 2033.35 37.1601H2014Z" fill="url(#paint5_linear_20_13413)"/>
<path opacity="0.6" d="M2529.5 41C2501.5 32.2 2445.5 28.6667 2421 28H3130C3105.5 28.6667 3049.5 32.2 3021.5 41C2986.54 51.9868 2914.67 91.9044 2775.5 91.9998C2636.33 91.9044 2564.46 51.9868 2529.5 41Z" fill="url(#paint6_linear_20_13413)"/>
<mask id="mask0_20_13413" style="mask-type:alpha" maskUnits="userSpaceOnUse" x="1456" y="14" width="2638" height="88">
<path d="M1982 34.5395H1628H1456V14H4094V34.5374H3922.5H3568.5C3537.5 34.5374 3376.5 33.0374 3320.5 49.0374C3250.5 69.0374 3196 92.0372 3127.5 97.5372C3084.27 101.008 2939.87 101.293 2825.27 101.282C2808.93 101.281 2793.19 101.273 2778.45 101.268C2761.05 101.273 2742.14 101.283 2722.38 101.284C2608.25 101.29 2465.87 100.982 2423 97.5393C2354.5 92.0393 2300 69.0395 2230 49.0395C2174 33.0395 2013 34.5395 1982 34.5395Z" fill="url(#paint7_linear_20_13413)"/>
</mask>
<g mask="url(#mask0_20_13413)">
<path d="M1982 34.5395H1628H1456V14H4094V34.5374H3922.5H3568.5C3537.5 34.5374 3376.5 33.0374 3320.5 49.0374C3250.5 69.0374 3196 92.0372 3127.5 97.5372C3084.27 101.008 2939.87 101.293 2825.27 101.282C2808.93 101.281 2793.19 101.273 2778.45 101.268C2761.05 101.273 2742.14 101.283 2722.38 101.284C2608.25 101.29 2465.87 100.982 2423 97.5393C2354.5 92.0393 2300 69.0395 2230 49.0395C2174 33.0395 2013 34.5395 1982 34.5395Z" fill="url(#paint8_linear_20_13413)"/>
<path d="M1982 34.5395H1628H1456V14H4094V34.5374H3922.5H3568.5C3537.5 34.5374 3376.5 33.0374 3320.5 49.0374C3250.5 69.0374 3196 92.0372 3127.5 97.5372C3084.27 101.008 2939.87 101.293 2825.27 101.282C2808.93 101.281 2793.19 101.273 2778.45 101.268C2761.05 101.273 2742.14 101.283 2722.38 101.284C2608.25 101.29 2465.87 100.982 2423 97.5393C2354.5 92.0393 2300 69.0395 2230 49.0395C2174 33.0395 2013 34.5395 1982 34.5395Z" fill="url(#paint9_linear_20_13413)"/>
<path d="M1982 34.5395H1628H1456V14H4094V34.5374H3922.5H3568.5C3537.5 34.5374 3376.5 33.0374 3320.5 49.0374C3250.5 69.0374 3196 92.0372 3127.5 97.5372C3084.27 101.008 2939.87 101.293 2825.27 101.282C2808.93 101.281 2793.19 101.273 2778.45 101.268C2761.05 101.273 2742.14 101.283 2722.38 101.284C2608.25 101.29 2465.87 100.982 2423 97.5393C2354.5 92.0393 2300 69.0395 2230 49.0395C2174 33.0395 2013 34.5395 1982 34.5395Z" fill="url(#paint10_linear_20_13413)"/>
</g>
<mask id="mask1_20_13413" style="mask-type:alpha" maskUnits="userSpaceOnUse" x="1449" y="12" width="2653" height="89">
<path d="M1976 33.0395H1622H1449V12H4101.5V33.0374H3916.5H3562.5C3531.5 33.0374 3370.5 31.5374 3314.5 47.5374C3244.5 67.5374 3190 90.5372 3121.5 96.0372C3078.27 99.5083 2933.87 99.793 2819.27 99.7821C2802.93 99.7805 2787.19 99.7729 2772.45 99.7677C2755.05 99.773 2736.14 99.7834 2716.38 99.7844C2602.25 99.7902 2459.87 99.4817 2417 96.0393C2348.5 90.5393 2294 67.5395 2224 47.5395C2168 31.5395 2007 33.0395 1976 33.0395Z" fill="url(#paint11_linear_20_13413)"/>
</mask>
<g mask="url(#mask1_20_13413)">
<g filter="url(#filter1_f_20_13413)">
<ellipse cx="2775.5" cy="118" rx="372.5" ry="74" fill="#1281E3" fill-opacity="0.215686"/>
</g>
<g opacity="0.5" filter="url(#filter2_f_20_13413)">
<ellipse cx="1957.5" cy="86" rx="372.5" ry="74" fill="#1281E3" fill-opacity="0.215686"/>
</g>
<g opacity="0.5" filter="url(#filter3_f_20_13413)">
<ellipse cx="3622.5" cy="86" rx="372.5" ry="74" fill="#1281E3" fill-opacity="0.215686"/>
</g>
<g filter="url(#filter4_f_20_13413)">
<ellipse cx="2775.5" cy="118" rx="275.5" ry="59" fill="#1281E3" fill-opacity="0.5"/>
</g>
</g>
<g filter="url(#filter5_f_20_13413)">
<ellipse cx="2775.5" cy="69" rx="490.5" ry="22" fill="#154694" fill-opacity="0.141176"/>
</g>
<g opacity="0.6" filter="url(#filter6_f_20_13413)">
<ellipse cx="2750" cy="69" rx="214" ry="21" fill="#498CC9" fill-opacity="0.14902"/>
</g>
<g opacity="0.6" filter="url(#filter7_f_20_13413)">
<ellipse cx="2750" cy="69" rx="65" ry="14" fill="#80AED8" fill-opacity="0.14902"/>
</g>
<mask id="mask2_20_13413" style="mask-type:alpha" maskUnits="userSpaceOnUse" x="2477" y="18" width="597" height="77">
<rect x="2477" y="18" width="597" height="77" fill="#D9D9D9"/>
</mask>
<g mask="url(#mask2_20_13413)">
<g filter="url(#filter8_f_20_13413)">
<ellipse cx="2775.5" cy="93.5" rx="243.5" ry="36.5" fill="#89BAFF" fill-opacity="0.145098"/>
</g>
<g filter="url(#filter9_f_20_13413)">
<ellipse cx="2775.5" cy="99.5" rx="128.5" ry="19.5" fill="#89BAFF" fill-opacity="0.59"/>
</g>
<g filter="url(#filter10_f_20_13413)">
<ellipse cx="2775.5" cy="99.5" rx="75.5" ry="19.5" fill="#89BAFF" fill-opacity="0.59"/>
</g>
</g>
<g filter="url(#filter11_f_20_13413)">
<ellipse cx="2775.5" cy="97.5" rx="424.5" ry="3.5" fill="#A1E9FF" fill-opacity="0.235294"/>
</g>
<g opacity="0.4" filter="url(#filter12_f_20_13413)">
<ellipse cx="2775.5" cy="97.5" rx="328.5" ry="3.5" fill="#A1EAFF" fill-opacity="0.482353"/>
</g>
<g opacity="0.5" filter="url(#filter13_f_20_13413)">
<ellipse cx="2775.5" cy="97.5" rx="114.5" ry="1.5" fill="#A0EAFF" fill-opacity="0.909804"/>
</g>
<g filter="url(#filter14_f_20_13413)">
<ellipse cx="2775.5" cy="97.5" rx="75.5" ry="1.5" fill="#A0EAFF" fill-opacity="0.909804"/>
</g>
<g filter="url(#filter15_f_20_13413)">
<ellipse cx="2775.5" cy="97.5" rx="28.5" ry="1.5" fill="#A0EAFF" fill-opacity="0.909804"/>
</g>
<rect x="2403" y="37" width="746" height="120" fill="url(#paint12_radial_20_13413)"/>
<path d="M2837 101H2714L2734 93H2817L2837 101Z" fill="#48B1FF"/>
<g style="mix-blend-mode:screen" opacity="0.28" filter="url(#filter16_f_20_13413)">
<path d="M2837 101H2714L2734 93H2817L2837 101Z" stroke="url(#paint13_linear_20_13413)" stroke-width="3"/>
</g>
<path d="M2837 101H2714L2734 93H2817L2837 101Z" fill="url(#paint14_linear_20_13413)"/>
<g filter="url(#filter17_d_20_13413)">
<path d="M2331 41.5L2345 33V37L2337 43L2341.5 51.5L2339.5 55L2331 41.5Z" fill="#15D6FF"/>
<path d="M2331 41.5L2345 33V37L2337 43L2341.5 51.5L2339.5 55L2331 41.5Z" fill="url(#paint15_linear_20_13413)" fill-opacity="0.5" style="mix-blend-mode:overlay"/>
</g>
<g filter="url(#filter18_d_20_13413)">
<path d="M3147 41.5L3133 33V37L3141 43L3136.5 51.5L3138.5 55L3147 41.5Z" fill="#15D6FF"/>
<path d="M3147 41.5L3133 33V37L3141 43L3136.5 51.5L3138.5 55L3147 41.5Z" fill="url(#paint16_linear_20_13413)" fill-opacity="0.5" style="mix-blend-mode:overlay"/>
</g>
<g filter="url(#filter19_d_20_13413)">
<path d="M2353 54L2347 44L2357.5 38V40.5L2350.87 44.9914L2354 51.5L2353 54Z" fill="#12A9FF"/>
<path d="M2353 54L2347 44L2357.5 38V40.5L2350.87 44.9914L2354 51.5L2353 54Z" fill="url(#paint17_linear_20_13413)" fill-opacity="0.21" style="mix-blend-mode:overlay"/>
</g>
<g filter="url(#filter20_d_20_13413)">
<path d="M3124.5 54L3130.5 44L3120 38V40.5L3126.63 44.9914L3123.5 51.5L3124.5 54Z" fill="#12A9FF"/>
<path d="M3124.5 54L3130.5 44L3120 38V40.5L3126.63 44.9914L3123.5 51.5L3124.5 54Z" fill="url(#paint18_linear_20_13413)" fill-opacity="0.21" style="mix-blend-mode:overlay"/>
</g>
<mask id="mask3_20_13413" style="mask-type:alpha" maskUnits="userSpaceOnUse" x="842" y="4" width="3807" height="16">
<rect x="842" y="4" width="3807" height="16" fill="url(#paint19_linear_20_13413)"/>
</mask>
<g mask="url(#mask3_20_13413)">
<path d="M4494 7H4620L4615 12H4489L4494 7Z" fill="#195EDD" fill-opacity="0.478431"/>
<path d="M2285 14H2351L2346 19H2280L2285 14Z" fill="#195FDC" fill-opacity="0.231373"/>
<path d="M1026 14H1250L1245 19H1021L1026 14Z" fill="#1C5CD1" fill-opacity="0.231373"/>
<circle cx="2357" cy="18" r="2" fill="#1A62DE" fill-opacity="0.152941"/>
<circle cx="2373" cy="18" r="2" fill="#1B60DC" fill-opacity="0.290196"/>
<circle cx="2389" cy="18" r="2" fill="#1A5FDF" fill-opacity="0.407843"/>
<circle cx="2405" cy="18" r="2" fill="#1A62DE" fill-opacity="0.152941"/>
<circle cx="2421" cy="18" r="2" fill="#1A5FDF" fill-opacity="0.407843"/>
<circle cx="3740" cy="17" r="2" fill="#1D5EDA" fill-opacity="0.137255"/>
<circle cx="3756" cy="17" r="2" fill="#1B60DC" fill-opacity="0.290196"/>
<circle cx="3772" cy="17" r="2" fill="#1A5EDE" fill-opacity="0.67451"/>
<circle cx="3788" cy="17" r="2" fill="#1A62DE" fill-opacity="0.152941"/>
<circle cx="3804" cy="17" r="2" fill="#1A5FDF" fill-opacity="0.407843"/>
<path d="M4622 7H4649V12H4617L4622 7Z" fill="#1C5CD1" fill-opacity="0.231373"/>
<path d="M4649 4H4494L4487 11H2935" stroke="#1C5CD1" stroke-opacity="0.258824"/>
<path fill-rule="evenodd" clip-rule="evenodd" d="M2852 12H2469V11H2852V12Z" fill="#1B60DC" fill-opacity="0.290196"/>
<path fill-rule="evenodd" clip-rule="evenodd" d="M2430 11H843V10H2430V11Z" fill="#195EDD" fill-opacity="0.509804"/>
<rect x="2859" y="9" width="48" height="4" fill="#1B60DC" fill-opacity="0.290196"/>
<rect x="2428" y="15" width="161" height="4" fill="#195EDD" fill-opacity="0.509804"/>
<rect x="3817" y="15" width="833" height="4" fill="#1C5CD1" fill-opacity="0.231373"/>
<path d="M846 8H911L908 11H843L846 8Z" fill="#1A5FDE"/>
<path d="M844.068 16.4545H1009.07" stroke="#1B60DC" stroke-opacity="0.258824" stroke-dasharray="3 3"/>
<path d="M844.068 16.4545H1009.07" stroke="#1A5EDE" stroke-opacity="0.678431" stroke-dasharray="1 5"/>
<path d="M1257.99 16.5H2273.99" stroke="#1C5CD1" stroke-dasharray="2 4"/>
<path d="M3233 17H3734" stroke="#1A5DDD" stroke-opacity="0.447059" stroke-dasharray="2 4"/>
<path d="M2596 17H2814" stroke="#1A5DDD" stroke-opacity="0.447059" stroke-dasharray="2 4"/>
</g>
<mask id="mask4_20_13413" style="mask-type:alpha" maskUnits="userSpaceOnUse" x="842" y="4" width="3807" height="16">
<rect x="842" y="4" width="3807" height="16" fill="url(#paint20_linear_20_13413)"/>
</mask>
<g mask="url(#mask4_20_13413)">
<path d="M846 8H911L908 11H843L846 8Z" fill="#22A7FF" fill-opacity="0.411765"/>
<path d="M4494 7H4620L4615 12H4489L4494 7Z" fill="#23A8FF" fill-opacity="0.313726"/>
<path d="M2285 14H2351L2346 19H2280L2285 14Z" fill="#195FDC" fill-opacity="0.231373"/>
<path d="M1026 14H1250L1245 19H1021L1026 14Z" fill="#1FAAFF" fill-opacity="0.0941176"/>
<circle cx="2357" cy="18" r="2" fill="#1A62DE" fill-opacity="0.152941"/>
<circle cx="2373" cy="18" r="2" fill="#1B60DC" fill-opacity="0.290196"/>
<circle cx="2389" cy="18" r="2" fill="#1A5FDF" fill-opacity="0.407843"/>
<circle cx="2405" cy="18" r="2" fill="#1A62DE" fill-opacity="0.152941"/>
<circle cx="2421" cy="18" r="2" fill="#1A5FDF" fill-opacity="0.407843"/>
<circle cx="3740" cy="17" r="2" fill="#1D5EDA" fill-opacity="0.137255"/>
<circle cx="3756" cy="17" r="2" fill="#1B60DC" fill-opacity="0.290196"/>
<circle cx="3772" cy="17" r="2" fill="#1A5EDE" fill-opacity="0.67451"/>
<circle cx="3788" cy="17" r="2" fill="#1A62DE" fill-opacity="0.152941"/>
<circle cx="3804" cy="17" r="2" fill="#1A5FDF" fill-opacity="0.407843"/>
<path d="M4622 7H4649V12H4617L4622 7Z" fill="#27B0FF" fill-opacity="0.0509804"/>
<path d="M4649 4.56091H4494L4487 11.5609H2935" stroke="#21A8FF" stroke-opacity="0.207843"/>
<path fill-rule="evenodd" clip-rule="evenodd" d="M2852 12H2469V11H2852V12Z" fill="#21AAFF" fill-opacity="0.211765"/>
<path fill-rule="evenodd" clip-rule="evenodd" d="M2430 11H843V10H2430V11Z" fill="#22A7FF" fill-opacity="0.411765"/>
<rect x="2859" y="9" width="48" height="4" fill="#1B60DC" fill-opacity="0.290196"/>
<rect x="2428" y="15" width="161" height="4" fill="#195EDD" fill-opacity="0.509804"/>
<rect x="3817" y="15" width="833" height="4" fill="#1FA7FF" fill-opacity="0.160784"/>
<path d="M844.068 16.4545H1009.07" stroke="#20A4FF" stroke-opacity="0.121569" stroke-dasharray="3 3"/>
<path d="M844.068 16.4545H1009.07" stroke="#23A7FF" stroke-opacity="0.309804" stroke-dasharray="1 5"/>
<path d="M1257.99 16.5H2273.99" stroke="#21A7FF" stroke-opacity="0.619608" stroke-dasharray="2 4"/>
<path d="M3233 17H3734" stroke="#1A5DDD" stroke-opacity="0.447059" stroke-dasharray="2 4"/>
<path d="M2596 17H2814" stroke="#1A5DDD" stroke-opacity="0.447059" stroke-dasharray="2 4"/>
</g>
<g filter="url(#filter21_d_20_13413)">
<rect x="1563" y="10" width="77" height="1" fill="#63BDFF" fill-opacity="0.290196" shape-rendering="crispEdges"/>
</g>
<g filter="url(#filter22_d_20_13413)">
<rect x="1863" y="9" width="37" height="1" fill="#63BDFF" fill-opacity="0.290196" shape-rendering="crispEdges"/>
</g>
<g filter="url(#filter23_d_20_13413)">
<rect x="3597" y="12" width="77" height="1" fill="#63BDFF" fill-opacity="0.290196" shape-rendering="crispEdges"/>
</g>
<g filter="url(#filter24_d_20_13413)">
<rect x="3902" y="11" width="37" height="1" fill="#63BDFF" fill-opacity="0.290196" shape-rendering="crispEdges"/>
</g>
</g>
<defs>
<filter id="filter0_f_20_13413" x="1624" y="26.5" width="2302.5" height="80.0388" filterUnits="userSpaceOnUse" color-interpolation-filters="sRGB">
<feFlood flood-opacity="0" result="BackgroundImageFix"/>
<feBlend mode="normal" in="SourceGraphic" in2="BackgroundImageFix" result="shape"/>
<feGaussianBlur stdDeviation="2" result="effect1_foregroundBlur_20_13413"/>
</filter>
<filter id="filter1_f_20_13413" x="2341" y="-18" width="869" height="272" filterUnits="userSpaceOnUse" color-interpolation-filters="sRGB">
<feFlood flood-opacity="0" result="BackgroundImageFix"/>
<feBlend mode="normal" in="SourceGraphic" in2="BackgroundImageFix" result="shape"/>
<feGaussianBlur stdDeviation="31" result="effect1_foregroundBlur_20_13413"/>
</filter>
<filter id="filter2_f_20_13413" x="1523" y="-50" width="869" height="272" filterUnits="userSpaceOnUse" color-interpolation-filters="sRGB">
<feFlood flood-opacity="0" result="BackgroundImageFix"/>
<feBlend mode="normal" in="SourceGraphic" in2="BackgroundImageFix" result="shape"/>
<feGaussianBlur stdDeviation="31" result="effect1_foregroundBlur_20_13413"/>
</filter>
<filter id="filter3_f_20_13413" x="3188" y="-50" width="869" height="272" filterUnits="userSpaceOnUse" color-interpolation-filters="sRGB">
<feFlood flood-opacity="0" result="BackgroundImageFix"/>
<feBlend mode="normal" in="SourceGraphic" in2="BackgroundImageFix" result="shape"/>
<feGaussianBlur stdDeviation="31" result="effect1_foregroundBlur_20_13413"/>
</filter>
<filter id="filter4_f_20_13413" x="2438" y="-3" width="675" height="242" filterUnits="userSpaceOnUse" color-interpolation-filters="sRGB">
<feFlood flood-opacity="0" result="BackgroundImageFix"/>
<feBlend mode="normal" in="SourceGraphic" in2="BackgroundImageFix" result="shape"/>
<feGaussianBlur stdDeviation="31" result="effect1_foregroundBlur_20_13413"/>
</filter>
<filter id="filter5_f_20_13413" x="2252" y="14" width="1047" height="110" filterUnits="userSpaceOnUse" color-interpolation-filters="sRGB">
<feFlood flood-opacity="0" result="BackgroundImageFix"/>
<feBlend mode="normal" in="SourceGraphic" in2="BackgroundImageFix" result="shape"/>
<feGaussianBlur stdDeviation="16.5" result="effect1_foregroundBlur_20_13413"/>
</filter>
<filter id="filter6_f_20_13413" x="2508" y="20" width="484" height="98" filterUnits="userSpaceOnUse" color-interpolation-filters="sRGB">
<feFlood flood-opacity="0" result="BackgroundImageFix"/>
<feBlend mode="normal" in="SourceGraphic" in2="BackgroundImageFix" result="shape"/>
<feGaussianBlur stdDeviation="14" result="effect1_foregroundBlur_20_13413"/>
</filter>
<filter id="filter7_f_20_13413" x="2657" y="27" width="186" height="84" filterUnits="userSpaceOnUse" color-interpolation-filters="sRGB">
<feFlood flood-opacity="0" result="BackgroundImageFix"/>
<feBlend mode="normal" in="SourceGraphic" in2="BackgroundImageFix" result="shape"/>
<feGaussianBlur stdDeviation="14" result="effect1_foregroundBlur_20_13413"/>
</filter>
<filter id="filter8_f_20_13413" x="2489" y="14" width="573" height="159" filterUnits="userSpaceOnUse" color-interpolation-filters="sRGB">
<feFlood flood-opacity="0" result="BackgroundImageFix"/>
<feBlend mode="normal" in="SourceGraphic" in2="BackgroundImageFix" result="shape"/>
<feGaussianBlur stdDeviation="21.5" result="effect1_foregroundBlur_20_13413"/>
</filter>
<filter id="filter9_f_20_13413" x="2604" y="37" width="343" height="125" filterUnits="userSpaceOnUse" color-interpolation-filters="sRGB">
<feFlood flood-opacity="0" result="BackgroundImageFix"/>
<feBlend mode="normal" in="SourceGraphic" in2="BackgroundImageFix" result="shape"/>
<feGaussianBlur stdDeviation="21.5" result="effect1_foregroundBlur_20_13413"/>
</filter>
<filter id="filter10_f_20_13413" x="2657" y="37" width="237" height="125" filterUnits="userSpaceOnUse" color-interpolation-filters="sRGB">
<feFlood flood-opacity="0" result="BackgroundImageFix"/>
<feBlend mode="normal" in="SourceGraphic" in2="BackgroundImageFix" result="shape"/>
<feGaussianBlur stdDeviation="21.5" result="effect1_foregroundBlur_20_13413"/>
</filter>
<filter id="filter11_f_20_13413" x="2341" y="84" width="869" height="27" filterUnits="userSpaceOnUse" color-interpolation-filters="sRGB">
<feFlood flood-opacity="0" result="BackgroundImageFix"/>
<feBlend mode="normal" in="SourceGraphic" in2="BackgroundImageFix" result="shape"/>
<feGaussianBlur stdDeviation="5" result="effect1_foregroundBlur_20_13413"/>
</filter>
<filter id="filter12_f_20_13413" x="2442" y="89" width="667" height="17" filterUnits="userSpaceOnUse" color-interpolation-filters="sRGB">
<feFlood flood-opacity="0" result="BackgroundImageFix"/>
<feBlend mode="normal" in="SourceGraphic" in2="BackgroundImageFix" result="shape"/>
<feGaussianBlur stdDeviation="2.5" result="effect1_foregroundBlur_20_13413"/>
</filter>
<filter id="filter13_f_20_13413" x="2658" y="93" width="235" height="9" filterUnits="userSpaceOnUse" color-interpolation-filters="sRGB">
<feFlood flood-opacity="0" result="BackgroundImageFix"/>
<feBlend mode="normal" in="SourceGraphic" in2="BackgroundImageFix" result="shape"/>
<feGaussianBlur stdDeviation="1.5" result="effect1_foregroundBlur_20_13413"/>
</filter>
<filter id="filter14_f_20_13413" x="2697" y="93" width="157" height="9" filterUnits="userSpaceOnUse" color-interpolation-filters="sRGB">
<feFlood flood-opacity="0" result="BackgroundImageFix"/>
<feBlend mode="normal" in="SourceGraphic" in2="BackgroundImageFix" result="shape"/>
<feGaussianBlur stdDeviation="1.5" result="effect1_foregroundBlur_20_13413"/>
</filter>
<filter id="filter15_f_20_13413" x="2744" y="93" width="63" height="9" filterUnits="userSpaceOnUse" color-interpolation-filters="sRGB">
<feFlood flood-opacity="0" result="BackgroundImageFix"/>
<feBlend mode="normal" in="SourceGraphic" in2="BackgroundImageFix" result="shape"/>
<feGaussianBlur stdDeviation="1.5" result="effect1_foregroundBlur_20_13413"/>
</filter>
<filter id="filter16_f_20_13413" x="2709.44" y="87.5" width="132.114" height="19" filterUnits="userSpaceOnUse" color-interpolation-filters="sRGB">
<feFlood flood-opacity="0" result="BackgroundImageFix"/>
<feBlend mode="normal" in="SourceGraphic" in2="BackgroundImageFix" result="shape"/>
<feGaussianBlur stdDeviation="2" result="effect1_foregroundBlur_20_13413"/>
</filter>
<filter id="filter17_d_20_13413" x="2326" y="28" width="24" height="32" filterUnits="userSpaceOnUse" color-interpolation-filters="sRGB">
<feFlood flood-opacity="0" result="BackgroundImageFix"/>
<feColorMatrix in="SourceAlpha" type="matrix" values="0 0 0 0 0 0 0 0 0 0 0 0 0 0 0 0 0 0 127 0" result="hardAlpha"/>
<feOffset/>
<feGaussianBlur stdDeviation="2.5"/>
<feComposite in2="hardAlpha" operator="out"/>
<feColorMatrix type="matrix" values="0 0 0 0 0.0980392 0 0 0 0 0.733333 0 0 0 0 1 0 0 0 0.41 0"/>
<feBlend mode="normal" in2="BackgroundImageFix" result="effect1_dropShadow_20_13413"/>
<feBlend mode="normal" in="SourceGraphic" in2="effect1_dropShadow_20_13413" result="shape"/>
</filter>
<filter id="filter18_d_20_13413" x="3128" y="28" width="24" height="32" filterUnits="userSpaceOnUse" color-interpolation-filters="sRGB">
<feFlood flood-opacity="0" result="BackgroundImageFix"/>
<feColorMatrix in="SourceAlpha" type="matrix" values="0 0 0 0 0 0 0 0 0 0 0 0 0 0 0 0 0 0 127 0" result="hardAlpha"/>
<feOffset/>
<feGaussianBlur stdDeviation="2.5"/>
<feComposite in2="hardAlpha" operator="out"/>
<feColorMatrix type="matrix" values="0 0 0 0 0.0980392 0 0 0 0 0.733333 0 0 0 0 1 0 0 0 0.41 0"/>
<feBlend mode="normal" in2="BackgroundImageFix" result="effect1_dropShadow_20_13413"/>
<feBlend mode="normal" in="SourceGraphic" in2="effect1_dropShadow_20_13413" result="shape"/>
</filter>
<filter id="filter19_d_20_13413" x="2342" y="33" width="20.5" height="26" filterUnits="userSpaceOnUse" color-interpolation-filters="sRGB">
<feFlood flood-opacity="0" result="BackgroundImageFix"/>
<feColorMatrix in="SourceAlpha" type="matrix" values="0 0 0 0 0 0 0 0 0 0 0 0 0 0 0 0 0 0 127 0" result="hardAlpha"/>
<feOffset/>
<feGaussianBlur stdDeviation="2.5"/>
<feComposite in2="hardAlpha" operator="out"/>
<feColorMatrix type="matrix" values="0 0 0 0 0.0980392 0 0 0 0 0.733333 0 0 0 0 1 0 0 0 0.32 0"/>
<feBlend mode="normal" in2="BackgroundImageFix" result="effect1_dropShadow_20_13413"/>
<feBlend mode="normal" in="SourceGraphic" in2="effect1_dropShadow_20_13413" result="shape"/>
</filter>
<filter id="filter20_d_20_13413" x="3115" y="33" width="20.5" height="26" filterUnits="userSpaceOnUse" color-interpolation-filters="sRGB">
<feFlood flood-opacity="0" result="BackgroundImageFix"/>
<feColorMatrix in="SourceAlpha" type="matrix" values="0 0 0 0 0 0 0 0 0 0 0 0 0 0 0 0 0 0 127 0" result="hardAlpha"/>
<feOffset/>
<feGaussianBlur stdDeviation="2.5"/>
<feComposite in2="hardAlpha" operator="out"/>
<feColorMatrix type="matrix" values="0 0 0 0 0.0980392 0 0 0 0 0.733333 0 0 0 0 1 0 0 0 0.32 0"/>
<feBlend mode="normal" in2="BackgroundImageFix" result="effect1_dropShadow_20_13413"/>
<feBlend mode="normal" in="SourceGraphic" in2="effect1_dropShadow_20_13413" result="shape"/>
</filter>
<filter id="filter21_d_20_13413" x="1556" y="3" width="91" height="15" filterUnits="userSpaceOnUse" color-interpolation-filters="sRGB">
<feFlood flood-opacity="0" result="BackgroundImageFix"/>
<feColorMatrix in="SourceAlpha" type="matrix" values="0 0 0 0 0 0 0 0 0 0 0 0 0 0 0 0 0 0 127 0" result="hardAlpha"/>
<feOffset/>
<feGaussianBlur stdDeviation="3.5"/>
<feComposite in2="hardAlpha" operator="out"/>
<feColorMatrix type="matrix" values="0 0 0 0 0 0 0 0 0 0.588235 0 0 0 0 1 0 0 0 0.67 0"/>
<feBlend mode="normal" in2="BackgroundImageFix" result="effect1_dropShadow_20_13413"/>
<feBlend mode="normal" in="SourceGraphic" in2="effect1_dropShadow_20_13413" result="shape"/>
</filter>
<filter id="filter22_d_20_13413" x="1856" y="2" width="51" height="15" filterUnits="userSpaceOnUse" color-interpolation-filters="sRGB">
<feFlood flood-opacity="0" result="BackgroundImageFix"/>
<feColorMatrix in="SourceAlpha" type="matrix" values="0 0 0 0 0 0 0 0 0 0 0 0 0 0 0 0 0 0 127 0" result="hardAlpha"/>
<feOffset/>
<feGaussianBlur stdDeviation="3.5"/>
<feComposite in2="hardAlpha" operator="out"/>
<feColorMatrix type="matrix" values="0 0 0 0 0 0 0 0 0 0.588235 0 0 0 0 1 0 0 0 0.67 0"/>
<feBlend mode="normal" in2="BackgroundImageFix" result="effect1_dropShadow_20_13413"/>
<feBlend mode="normal" in="SourceGraphic" in2="effect1_dropShadow_20_13413" result="shape"/>
</filter>
<filter id="filter23_d_20_13413" x="3590" y="5" width="91" height="15" filterUnits="userSpaceOnUse" color-interpolation-filters="sRGB">
<feFlood flood-opacity="0" result="BackgroundImageFix"/>
<feColorMatrix in="SourceAlpha" type="matrix" values="0 0 0 0 0 0 0 0 0 0 0 0 0 0 0 0 0 0 127 0" result="hardAlpha"/>
<feOffset/>
<feGaussianBlur stdDeviation="3.5"/>
<feComposite in2="hardAlpha" operator="out"/>
<feColorMatrix type="matrix" values="0 0 0 0 0 0 0 0 0 0.588235 0 0 0 0 1 0 0 0 0.67 0"/>
<feBlend mode="normal" in2="BackgroundImageFix" result="effect1_dropShadow_20_13413"/>
<feBlend mode="normal" in="SourceGraphic" in2="effect1_dropShadow_20_13413" result="shape"/>
</filter>
<filter id="filter24_d_20_13413" x="3895" y="4" width="51" height="15" filterUnits="userSpaceOnUse" color-interpolation-filters="sRGB">
<feFlood flood-opacity="0" result="BackgroundImageFix"/>
<feColorMatrix in="SourceAlpha" type="matrix" values="0 0 0 0 0 0 0 0 0 0 0 0 0 0 0 0 0 0 127 0" result="hardAlpha"/>
<feOffset/>
<feGaussianBlur stdDeviation="3.5"/>
<feComposite in2="hardAlpha" operator="out"/>
<feColorMatrix type="matrix" values="0 0 0 0 0 0 0 0 0 0.588235 0 0 0 0 1 0 0 0 0.67 0"/>
<feBlend mode="normal" in2="BackgroundImageFix" result="effect1_dropShadow_20_13413"/>
<feBlend mode="normal" in="SourceGraphic" in2="effect1_dropShadow_20_13413" result="shape"/>
</filter>
<linearGradient id="paint0_linear_20_13413" x1="5486" y1="0" x2="0" y2="0" gradientUnits="userSpaceOnUse">
<stop offset="0.104167" stop-color="#172637" stop-opacity="0"/>
<stop offset="0.494792" stop-color="#172637"/>
<stop offset="0.895833" stop-color="#193250" stop-opacity="0"/>
</linearGradient>
<linearGradient id="paint1_linear_20_13413" x1="2234.5" y1="88.5001" x2="2783.5" y2="88.5001" gradientUnits="userSpaceOnUse">
<stop stop-color="#7DC8FF" stop-opacity="0"/>
<stop offset="0.413887" stop-color="#7CC9FF" stop-opacity="0.392157"/>
<stop offset="1" stop-color="#7DC8FF" stop-opacity="0.701961"/>
</linearGradient>
<linearGradient id="paint2_linear_20_13413" x1="3317" y1="88.5001" x2="2768" y2="88.5001" gradientUnits="userSpaceOnUse">
<stop stop-color="#7DC8FF" stop-opacity="0"/>
<stop offset="0.413887" stop-color="#7CC9FF" stop-opacity="0.392157"/>
<stop offset="1" stop-color="#7DC8FF" stop-opacity="0.701961"/>
</linearGradient>
<linearGradient id="paint3_linear_20_13413" x1="1628" y1="100.04" x2="3923" y2="100.04" gradientUnits="userSpaceOnUse">
<stop offset="0.162523" stop-color="#00B4FF" stop-opacity="0"/>
<stop offset="0.21991" stop-color="#00B4FF" stop-opacity="0.615686"/>
<stop offset="0.341596" stop-color="#00B4FF" stop-opacity="0"/>
<stop offset="0.465714" stop-color="#00B4FF" stop-opacity="0.658824"/>
<stop offset="0.688266" stop-color="#00B4FF" stop-opacity="0"/>
<stop offset="0.785297" stop-color="#00B4FF" stop-opacity="0.615686"/>
<stop offset="0.849916" stop-color="#00B4FF" stop-opacity="0"/>
</linearGradient>
<linearGradient id="paint4_linear_20_13413" x1="1628" y1="100.04" x2="3923" y2="100.04" gradientUnits="userSpaceOnUse">
<stop offset="0.162523" stop-color="#00CCFF" stop-opacity="0"/>
<stop offset="0.21991" stop-color="#00CCFF" stop-opacity="0.615686"/>
<stop offset="0.341596" stop-color="#00CCFF" stop-opacity="0"/>
<stop offset="0.465714" stop-color="#00CCFF" stop-opacity="0.658824"/>
<stop offset="0.688266" stop-color="#00CCFF" stop-opacity="0"/>
<stop offset="0.785297" stop-color="#00CCFF" stop-opacity="0.615686"/>
<stop offset="0.849916" stop-color="#00CCFF" stop-opacity="0"/>
</linearGradient>
<linearGradient id="paint5_linear_20_13413" x1="2775.25" y1="37" x2="2775.25" y2="92.194" gradientUnits="userSpaceOnUse">
<stop stop-color="#2DA8FF" stop-opacity="0"/>
<stop offset="0.421179" stop-color="#2DA8FF" stop-opacity="0.0484231"/>
<stop offset="1" stop-color="#2DA8FF" stop-opacity="0.196078"/>
</linearGradient>
<linearGradient id="paint6_linear_20_13413" x1="2775.5" y1="28" x2="2775.5" y2="92" gradientUnits="userSpaceOnUse">
<stop stop-color="#2DA6FF" stop-opacity="0"/>
<stop offset="0.471958" stop-color="#2DA6FF" stop-opacity="0.0847576"/>
<stop offset="0.779946" stop-color="#2DA6FF" stop-opacity="0.17989"/>
<stop offset="1" stop-color="#2DA6FF" stop-opacity="0.329412"/>
</linearGradient>
<linearGradient id="paint7_linear_20_13413" x1="2775" y1="14" x2="2775" y2="101.539" gradientUnits="userSpaceOnUse">
<stop stop-color="#D9D9D9" stop-opacity="0"/>
<stop offset="0.378917" stop-color="#D9D9D9"/>
</linearGradient>
<linearGradient id="paint8_linear_20_13413" x1="2775" y1="14" x2="2775" y2="101.539" gradientUnits="userSpaceOnUse">
<stop offset="0.263308" stop-color="#69B2F5" stop-opacity="0"/>
<stop offset="1" stop-color="#69B2F5" stop-opacity="0.207843"/>
</linearGradient>
<linearGradient id="paint9_linear_20_13413" x1="1502" y1="83.0006" x2="2097" y2="83.0006" gradientUnits="userSpaceOnUse">
<stop stop-color="#68B0F4" stop-opacity="0"/>
<stop offset="0.479815" stop-color="#68B0F4" stop-opacity="0.192157"/>
<stop offset="1" stop-color="#68B0F4" stop-opacity="0"/>
</linearGradient>
<linearGradient id="paint10_linear_20_13413" x1="3343.5" y1="82.9998" x2="4247.5" y2="82.9998" gradientUnits="userSpaceOnUse">
<stop stop-color="#68B0F4" stop-opacity="0"/>
<stop offset="0.479815" stop-color="#68B0F4" stop-opacity="0.192157"/>
<stop offset="1" stop-color="#68B0F4" stop-opacity="0"/>
</linearGradient>
<linearGradient id="paint11_linear_20_13413" x1="1622" y1="100.041" x2="3917" y2="100.041" gradientUnits="userSpaceOnUse">
<stop stop-color="#4C8BC1" stop-opacity="0"/>
<stop offset="0.21991" stop-color="#4C8BC1" stop-opacity="0.615686"/>
<stop offset="0.465714" stop-color="#4D8BC2" stop-opacity="0.658824"/>
<stop offset="0.742405" stop-color="#4C8BC1" stop-opacity="0.615686"/>
<stop offset="1" stop-color="#4C8BC1" stop-opacity="0"/>
</linearGradient>
<radialGradient id="paint12_radial_20_13413" cx="0" cy="0" r="1" gradientUnits="userSpaceOnUse" gradientTransform="translate(2776 97) rotate(90) scale(60 373)">
<stop stop-color="#A2E7FF" stop-opacity="0.08"/>
<stop offset="1" stop-color="#A2E7FF" stop-opacity="0"/>
</radialGradient>
<linearGradient id="paint13_linear_20_13413" x1="2714" y1="101" x2="2837" y2="101" gradientUnits="userSpaceOnUse">
<stop offset="0.0668946" stop-color="#B0E8FF" stop-opacity="0"/>
<stop offset="0.338942" stop-color="#B0E8FF" stop-opacity="0.776471"/>
<stop offset="0.414614" stop-color="#B0E8FF" stop-opacity="0.92549"/>
<stop offset="0.51551" stop-color="#B0E8FF" stop-opacity="0.996078"/>
<stop offset="0.655213" stop-color="#B0E8FF" stop-opacity="0.788235"/>
<stop offset="0.738646" stop-color="#B0E8FF" stop-opacity="0.517647"/>
<stop offset="0.94018" stop-color="#B0E8FF" stop-opacity="0"/>
</linearGradient>
<linearGradient id="paint14_linear_20_13413" x1="2714" y1="101" x2="2837" y2="101" gradientUnits="userSpaceOnUse">
<stop stop-color="#D8F7FF" stop-opacity="0"/>
<stop offset="0.338942" stop-color="#DAF8FF" stop-opacity="0.776471"/>
<stop offset="0.414614" stop-color="#DDF8FF" stop-opacity="0.92549"/>
<stop offset="0.51551" stop-color="#DDF7FF" stop-opacity="0.996078"/>
<stop offset="0.655213" stop-color="#DBF7FF" stop-opacity="0.788235"/>
<stop offset="0.738646" stop-color="#D8F7FF" stop-opacity="0.517647"/>
<stop offset="1" stop-color="#D8F7FF" stop-opacity="0"/>
</linearGradient>
<linearGradient id="paint15_linear_20_13413" x1="2331.5" y1="41.5" x2="2344.5" y2="44" gradientUnits="userSpaceOnUse">
<stop stop-color="white"/>
<stop offset="1"/>
</linearGradient>
<linearGradient id="paint16_linear_20_13413" x1="3146.5" y1="41.5" x2="3133.5" y2="44" gradientUnits="userSpaceOnUse">
<stop stop-color="white"/>
<stop offset="1"/>
</linearGradient>
<linearGradient id="paint17_linear_20_13413" x1="2347" y1="44.5" x2="2356.5" y2="46" gradientUnits="userSpaceOnUse">
<stop stop-color="white"/>
<stop offset="1"/>
</linearGradient>
<linearGradient id="paint18_linear_20_13413" x1="3130.5" y1="44.5" x2="3121" y2="46" gradientUnits="userSpaceOnUse">
<stop stop-color="white"/>
<stop offset="1"/>
</linearGradient>
<linearGradient id="paint19_linear_20_13413" x1="842" y1="19.9815" x2="4649" y2="19.9815" gradientUnits="userSpaceOnUse">
<stop offset="0.312629" stop-color="#D9D9D9"/>
<stop offset="0.369623" stop-color="#D9D9D9" stop-opacity="0"/>
<stop offset="0.663293" stop-color="#D9D9D9" stop-opacity="0"/>
<stop offset="0.723" stop-color="#D9D9D9" stop-opacity="0.835487"/>
<stop offset="0.780494" stop-color="#D9D9D9"/>
</linearGradient>
<linearGradient id="paint20_linear_20_13413" x1="842" y1="19.9815" x2="4649" y2="19.9815" gradientUnits="userSpaceOnUse">
<stop offset="0.091603" stop-color="#D9D9D9"/>
<stop offset="0.208384" stop-color="#D9D9D9" stop-opacity="0"/>
<stop offset="0.797036" stop-color="#D9D9D9" stop-opacity="0"/>
<stop offset="0.866444" stop-color="#D9D9D9"/>
</linearGradient>
<clipPath id="clip0_20_13413">
<rect width="5486" height="110" fill="white"/>
</clipPath>
</defs>
</svg>
